<svg width="513" height="513" viewBox="0 0 513 513" fill="none" xmlns="http://www.w3.org/2000/svg">
<path d="M281.725 256.003V329.475H230.525V256.003" fill="#D25627"/>
<path d="M281.725 256.003V329.475H240.125V256.003" fill="#AF71E8"/>
<path d="M369.338 14.562C378.554 51.7306 397.043 194.484 268.347 269.763C260.796 274.173 251.455 274.173 243.904 269.763C115.207 194.484 133.696 51.7306 142.913 14.562C143.788 11.0107 146.981 8.52049 150.639 8.53658H361.612C365.269 8.52049 368.462 11.0107 369.338 14.562V14.562Z" fill="#AF71E8"/>
<path d="M344.13 14.5619C352.337 51.7305 368.799 194.484 254.207 269.763C247.623 274.171 239.031 274.171 232.447 269.763C117.852 194.484 134.314 51.7305 142.521 14.5619C143.102 11.18 145.972 8.66681 149.401 8.5365H337.251C340.68 8.66714 343.549 11.1802 344.13 14.5619V14.5619Z" fill="#DFC5F8"/>
<path d="M375.592 477.87H136.659L153.725 401.07H358.525L375.592 477.87Z" fill="#AF71E8"/>
<path d="M349.992 477.87H136.659L151.899 401.07H334.751L349.992 477.87Z" fill="#AF71E8"/>
<path d="M384.125 469.337H128.125C123.412 469.337 119.592 473.157 119.592 477.87V494.937C119.592 499.649 123.412 503.47 128.125 503.47H384.125C388.838 503.47 392.659 499.649 392.659 494.937V477.87C392.659 473.157 388.838 469.337 384.125 469.337Z" fill="#DFC5F8"/>
<path d="M358.525 469.337H128.125C123.412 469.337 119.592 473.157 119.592 477.87V494.937C119.592 499.649 123.412 503.47 128.125 503.47H358.525C363.238 503.47 367.059 499.649 367.059 494.937V477.87C367.059 473.157 363.238 469.337 358.525 469.337Z" fill="#DFC5F8"/>
<path d="M281.725 324.27L284.456 329.646C288.109 337.072 294.854 342.506 302.888 344.494C309.031 346.053 314.489 349.591 318.419 354.563C322.284 359.544 324.385 365.667 324.392 371.971V375.47H187.859V371.971C187.882 358.966 196.744 347.642 209.363 344.494C217.396 342.506 224.142 337.072 227.795 329.646L230.525 324.27H281.725Z" fill="#AF71E8"/>
<path d="M264.125 324.27L266.344 329.646C268.832 336.606 274.338 342.065 281.32 344.494C286.578 346.265 291.045 349.83 293.938 354.563C297.151 359.798 298.832 365.829 298.792 371.971L298.793 375.47H187.859V371.971C187.181 360.011 194.212 348.953 205.331 344.494C212.312 342.065 217.818 336.606 220.307 329.646L222.525 324.27H264.125Z" fill="#AF71E8"/>
<path d="M154.896 353.041C165.667 343.791 172.461 330.746 173.864 316.617C177.24 297.28 173.954 284.118 167.085 275.101C165.324 272.844 162.292 272.009 159.623 273.046C149.364 277.352 140.074 287.449 135.804 307.051C134.474 313.129 133.955 319.355 134.258 325.569C127.402 315.721 120.937 305.551 114.864 295.059C125.725 287.833 133.287 276.606 135.902 263.827C140.905 250.337 140.277 235.403 134.158 222.382C132.917 219.921 130.233 218.539 127.508 218.957C117.603 221.165 107.947 229.212 101.793 247.383C100.027 252.629 98.8829 258.065 98.3857 263.578C93.1223 252.528 88.3821 241.345 84.1649 230.029C94.7381 224.738 102.707 215.378 106.243 204.096C112.36 191.356 113.505 176.793 109.453 163.254C108.733 160.685 106.508 158.823 103.852 158.566C94.6686 158.75 85.0259 164.746 77.2538 181.306C75.2445 185.611 73.6722 190.107 72.5604 194.726C70.8273 188.624 69.1607 182.512 67.7417 176.412L65.8643 168.371C69.1554 151.845 69.2302 134.84 66.0845 118.286C61.4671 88.8472 60.8117 98.1365 51.3252 93.8699C42.0367 98.2321 30.899 91.5258 34.2586 123.818C36.746 148.384 41.0963 168.037 50.2389 176.492L51.1213 180.283C52.6675 186.928 54.468 193.586 56.3701 200.229C52.9414 196.824 49.2821 193.659 45.4184 190.757C30.7411 179.59 19.7075 177.167 11.4327 182.078C9.04763 184.236 8.03816 187.529 8.80362 190.653C11.3391 207.381 20.9085 222.226 35.0974 231.443C48.9129 240.434 60.3723 240.738 68.4627 236.765C72.8855 248.579 77.8844 260.302 83.4106 271.829C78.7539 268.725 73.8418 266.022 68.7272 263.75C51.2808 255.868 38.9101 255.914 30.6558 262.598C28.4337 265.072 27.8208 268.598 29.078 271.677C34.5253 287.949 47.1388 300.82 63.2966 306.596C75.2408 312.401 89.3577 311.498 100.465 304.219C106.846 315.212 113.655 325.887 120.83 336.141C115.006 333.656 108.952 331.748 102.756 330.444C83.1742 326.135 69.9279 328.793 62.0149 337.241C59.9876 340.024 59.8059 343.745 61.5524 346.713C69.8523 362.177 85.1153 372.676 102.525 374.896C116.643 378.304 131.525 374.299 142.026 364.266C146.509 369.823 151.2 375.401 156.447 381.195L162.172 387.524L174.827 376.07L169.098 369.745C163.909 364.014 159.294 358.517 154.896 353.041V353.041Z" fill="#DFC5F8"/>
<path d="M357.354 353.041C346.583 343.791 339.79 330.746 338.387 316.617C335.011 297.28 338.296 284.118 345.165 275.101C346.926 272.844 349.959 272.009 352.627 273.046C362.887 277.352 372.177 287.449 376.447 307.051C377.776 313.129 378.296 319.355 377.992 325.569C384.849 315.721 391.313 305.551 397.386 295.059C386.525 287.833 378.963 276.606 376.348 263.827C371.345 250.339 371.973 235.407 378.089 222.387C379.33 219.926 382.014 218.544 384.739 218.963C394.644 221.17 404.3 229.217 410.453 247.388C412.22 252.634 413.364 258.07 413.861 263.583C419.125 252.533 423.865 241.35 428.082 230.035C417.509 224.744 409.54 215.383 406.004 204.101C399.887 191.361 398.742 176.798 402.794 163.26C403.514 160.69 405.739 158.828 408.395 158.571C417.578 158.755 427.221 164.751 434.993 181.311C437.002 185.616 438.575 190.112 439.687 194.731C441.42 188.629 443.086 182.517 444.505 176.417L446.383 168.376C443.092 151.85 443.017 134.845 446.163 118.291C450.788 88.8514 459.277 89.6049 468.763 85.3383C478.052 89.7005 481.356 91.5275 477.996 123.819C475.509 148.386 471.158 168.039 462.016 176.494L461.133 180.284C459.587 186.93 457.786 193.588 455.885 200.231C459.313 196.826 462.973 193.661 466.836 190.759C481.514 179.591 492.547 177.169 500.822 182.08C503.207 184.238 504.217 187.531 503.451 190.655C500.916 207.383 491.346 222.228 477.157 231.444C463.342 240.436 451.882 240.74 443.792 236.767C439.371 248.584 434.372 260.307 428.849 271.833C433.506 268.729 438.418 266.026 443.533 263.754C460.979 255.873 473.35 255.919 481.604 262.602C483.826 265.076 484.439 268.603 483.182 271.682C477.735 287.953 465.121 300.824 448.963 306.6C437.019 312.405 422.902 311.503 411.795 304.223C405.414 315.216 398.605 325.891 391.429 336.145C397.253 333.661 403.307 331.753 409.503 330.448C429.079 326.14 442.324 328.799 450.237 337.247C452.263 340.029 452.445 343.748 450.701 346.714C442.4 362.178 427.136 372.676 409.725 374.896C395.607 378.304 380.725 374.299 370.224 364.266C365.741 369.823 361.05 375.401 355.803 381.195L350.078 387.524L337.425 376.067L343.154 369.742C348.342 364.014 352.956 358.517 357.354 353.041V353.041Z" fill="#DFC5F8"/>
<path d="M450.685 346.713C442.38 362.163 427.125 372.651 409.725 374.873C402.396 376.208 394.87 376.004 387.624 374.275C403.633 371.218 417.402 361.087 425.085 346.713C426.829 343.749 426.661 340.036 424.659 337.241C421.274 333.719 416.998 331.183 412.285 329.902C430.376 326.403 442.749 329.219 450.259 337.241C452.261 340.036 452.429 343.749 450.685 346.713Z" fill="white"/>
<path d="M483.197 271.705C477.682 287.93 465.092 300.771 448.979 306.606C439.464 310.806 428.73 311.323 418.856 308.057C420.307 307.63 421.843 307.203 423.379 306.606C439.492 300.771 452.082 287.93 457.597 271.705C458.809 268.597 458.183 265.074 455.976 262.574C454.877 261.709 453.706 260.938 452.477 260.27C461.906 255.86 472.959 256.735 481.576 262.574C483.783 265.074 484.409 268.597 483.197 271.705Z" fill="white"/>
<path d="M503.421 190.638C500.91 207.372 491.34 222.225 477.139 231.427C463.315 240.473 451.88 240.729 443.773 236.803C441.043 243.971 438.141 251.139 434.984 258.222C429.078 259.32 423.341 261.185 417.917 263.769C412.815 266.04 407.907 268.722 403.24 271.79C406.312 265.39 409.213 258.905 411.944 252.334C412.914 256.027 413.571 259.795 413.907 263.598C417.747 255.406 421.416 247.129 424.659 238.851C431.047 239.758 437.56 238.717 443.347 235.865C446.213 234.65 448.956 233.165 451.539 231.427C465.74 222.225 475.31 207.372 477.821 190.638C478.279 188.433 477.947 186.137 476.883 184.153C483.842 179.067 493.053 178.278 500.776 182.105C503.207 184.215 504.232 187.522 503.421 190.638V190.638Z" fill="white"/>
<path d="M358.525 375.47H153.725C149.012 375.47 145.192 379.29 145.192 384.003V401.07C145.192 405.783 149.012 409.603 153.725 409.603H358.525C363.238 409.603 367.059 405.783 367.059 401.07V384.003C367.059 379.29 363.238 375.47 358.525 375.47Z" fill="#DFC5F8"/>
<path d="M332.925 375.47H153.725C149.012 375.47 145.192 379.29 145.192 384.003V401.07C145.192 405.783 149.012 409.603 153.725 409.603H332.925C337.638 409.603 341.459 405.783 341.459 401.07V384.003C341.459 379.29 337.638 375.47 332.925 375.47Z" fill="#DFC5F8"/>
<path d="M93.4799 308.065C91.9763 307.627 90.4702 307.186 88.8932 306.596C72.7354 300.82 60.1219 287.949 54.6745 271.677C53.4174 268.598 54.0302 265.072 56.2524 262.598C57.3402 261.723 58.5122 260.959 59.751 260.316C50.3195 255.938 39.2862 256.803 30.6524 262.598C28.4302 265.072 27.8174 268.598 29.0745 271.677C34.5219 287.949 47.1354 300.82 63.2932 306.596C72.8294 310.793 83.581 311.317 93.4799 308.065Z" fill="white"/>
<path d="M87.6568 238.806C78.0605 239.869 68.4197 237.235 60.6974 231.44C46.5085 222.224 36.9391 207.379 34.4036 190.651C34.037 188.439 34.3602 186.168 35.3295 184.147C28.3494 179.122 19.1768 178.327 11.4362 182.076C9.05104 184.234 8.04158 187.526 8.80704 190.651C11.3426 207.379 20.912 222.224 35.1008 231.44C48.9163 240.432 60.3757 240.735 68.4661 236.762C71.1652 243.979 74.151 251.138 77.27 258.261C83.1687 259.345 88.9019 261.19 94.3255 263.75" fill="white"/>
<path d="M69.4782 136.537C68.0275 122.622 59.6649 103.251 62.2914 99.8125C60.0292 93.6139 57.6271 96.7046 51.3252 93.8699C42.0367 98.2321 30.899 91.5258 34.2586 123.818C36.746 148.384 50.716 180.756 59.8586 189.212L60.7401 193.002L60.746 193.023" fill="white"/>
<path d="M100.027 329.945C81.9761 326.483 69.5464 329.203 62.0149 337.243C59.9887 340.026 59.807 343.746 61.5524 346.713C69.8523 362.177 85.1153 372.676 102.525 374.896C109.91 376.195 117.485 375.944 124.768 374.158C108.713 371.194 94.8743 361.095 87.1533 346.71C85.409 343.744 85.5907 340.025 87.6158 337.243C91.0035 333.716 95.2977 331.191 100.027 329.945V329.945Z" fill="white"/>
<path d="M139.338 114.473C146.394 167.032 169.505 227.381 230.525 268.421V324.27H222.525L220.307 329.646C217.818 336.606 212.312 342.065 205.331 344.494C197.039 347.543 190.884 354.623 189.017 363.259C190.86 365.401 192.705 367.545 194.696 369.744L199.882 375.47H213.459V371.971C212.781 360.011 219.812 348.953 230.931 344.494C237.912 342.065 243.418 336.606 245.907 329.646L248.125 324.27H256.125V268.421C195.105 227.381 171.994 167.032 164.938 114.473C160.962 87.4683 160.962 60.0273 164.938 33.0229C165.947 25.4564 167.096 19.1895 168.118 14.5619C168.699 11.179 171.57 8.66556 175.001 8.5365H149.401C145.972 8.66714 143.102 11.1802 142.521 14.5619C141.497 19.1895 140.35 25.4564 139.341 33.0229C135.364 60.0271 135.363 87.4682 139.338 114.473V114.473Z" fill="white"/>
<path d="M119.592 477.87V494.937C119.592 499.649 123.412 503.47 128.125 503.47H153.725C149.012 503.47 145.192 499.649 145.192 494.937V477.87C145.192 473.157 149.012 469.337 153.725 469.337H163.952L175.944 408.892C172.82 407.547 170.795 404.472 170.792 401.07V384.003C170.825 380.089 173.553 376.715 177.374 375.863L177.029 375.47H174.282L169.096 369.745C167.938 368.465 166.9 367.233 165.796 365.975C161.382 369.941 156.057 372.758 150.295 374.175C150.773 374.733 151.286 375.304 151.774 375.863C147.953 376.715 145.225 380.089 145.192 384.003V401.07C145.195 404.472 147.22 407.547 150.344 408.892L138.352 469.337H128.125C123.412 469.337 119.592 473.157 119.592 477.87V477.87Z" fill="white"/>
<path d="M375.592 477.87H136.659C133.981 477.87 131.458 476.612 129.846 474.474C128.234 472.336 127.718 469.565 128.455 466.991L145.521 407.257C146.568 403.595 149.916 401.07 153.725 401.07H358.525C362.334 401.07 365.682 403.595 366.729 407.257L383.796 466.991C384.532 469.565 384.017 472.336 382.404 474.474C380.792 476.612 378.27 477.87 375.592 477.87ZM147.971 460.803H364.279L352.088 418.137H160.163L147.971 460.803Z" fill="#8A2BE3"/>
<path d="M384.125 512.003H128.125C118.704 511.994 111.068 504.358 111.059 494.937V477.87C111.068 468.448 118.704 460.813 128.125 460.803H384.125C393.547 460.813 401.183 468.448 401.192 477.87V494.937C401.183 504.358 393.547 511.994 384.125 512.003ZM128.125 477.87V494.937H384.138L384.125 477.87H128.125Z" fill="#8A2BE3"/>
<path d="M358.525 418.137H153.725C144.303 418.127 136.668 410.492 136.659 401.07V384.003C136.668 374.581 144.303 366.946 153.725 366.937H358.525C367.947 366.946 375.583 374.581 375.592 384.003V401.07C375.583 410.492 367.947 418.127 358.525 418.137ZM153.725 384.003V401.07H358.538L358.525 384.003H153.725Z" fill="#8A2BE3"/>
<path d="M324.392 384.003H187.859C183.146 384.003 179.325 380.183 179.325 375.47V371.971C179.322 355.042 190.86 340.291 207.291 336.217C212.9 334.842 217.609 331.049 220.146 325.862L222.917 320.409C224.371 317.543 227.312 315.737 230.525 315.737H281.725C284.939 315.737 287.879 317.542 289.334 320.408L292.064 325.784C294.59 330.994 299.299 334.813 304.919 336.209C321.376 340.257 332.94 355.023 332.925 371.971V375.47C332.925 380.183 329.105 384.003 324.392 384.003V384.003ZM197.042 366.937H315.213C313.371 359.914 307.822 354.47 300.766 352.762C290.316 350.172 281.545 343.095 276.804 333.428L276.487 332.803H235.763L235.405 333.507C230.642 343.165 221.851 350.221 211.392 352.782C204.386 354.531 198.887 359.955 197.042 366.937V366.937Z" fill="#8A2BE3"/>
<path d="M149.142 364.278C144.506 364.241 140.136 362.111 137.25 358.483C126.121 343.128 122.523 323.568 127.459 305.258C133 279.815 146.212 269.418 156.317 265.178C162.565 262.658 169.727 264.59 173.859 269.912C183.378 284.042 186.435 301.554 182.267 318.074C178.637 339.186 169.4 354.92 156.255 362.382C154.091 363.628 151.638 364.281 149.142 364.278V364.278ZM147.812 347.553L147.792 347.566L147.812 347.553ZM161.295 281.676C151.745 287.668 145.434 297.675 144.143 308.876C140.594 321.61 142.55 335.248 149.535 346.472C158.688 338.491 164.394 327.274 165.455 315.176L165.459 315.151C168.39 303.868 166.899 291.891 161.292 281.67L161.295 281.676Z" fill="#8A2BE3"/>
<path d="M112.424 384.228C108.663 384.221 104.908 383.918 101.194 383.324L101.16 383.321C81.1084 380.594 63.5696 368.444 53.9706 350.629C50.5196 344.455 51.2549 336.789 55.8163 331.383C66.1118 320.391 82.5257 317.262 104.583 322.113C122.524 324.936 138.862 334.088 150.641 347.912C155.035 353.469 155.175 361.277 150.983 366.988C141.593 378.527 127.284 384.925 112.424 384.228ZM103.869 366.47C122.736 369.428 132.285 362.67 136.586 357.649C127.203 347.485 114.63 340.831 100.948 338.79C85.7905 335.449 75.0317 336.653 68.9696 342.356C69.0041 342.509 69.0571 342.658 69.1275 342.798C76.1447 355.892 89.1174 364.731 103.871 366.47H103.869ZM68.2673 343.058L68.246 343.078L68.2673 343.058Z" fill="#8A2BE3"/>
<path d="M109.651 305.497C104.202 305.384 99.2296 302.368 96.6124 297.588C88.1743 281.159 87.117 261.918 93.7043 244.663C101.854 220.599 115.575 212.876 125.651 210.63C132.115 209.363 138.641 212.506 141.68 218.351C148.824 233.344 149.693 250.568 144.096 266.205C138.334 286.134 127.746 299.796 114.276 304.676C112.794 305.22 111.229 305.497 109.651 305.497V305.497ZM108.456 288.634L108.418 288.647L108.456 288.634ZM127.357 227.861C118.554 232.368 112.166 240.503 109.873 250.124C105.152 262.244 105.425 275.742 110.632 287.662C119.478 281.449 125.59 272.067 127.699 261.465L127.707 261.443C131.681 250.58 131.556 238.64 127.357 227.861V227.861Z" fill="#8A2BE3"/>
<path d="M81.5 318.716C74.2419 318.619 67.0602 317.22 60.2963 314.586L60.263 314.574C41.6664 307.929 27.1697 293.085 20.967 274.336C18.5588 267.895 20.2684 260.638 25.2986 255.949C36.4277 246.928 52.2238 246.941 72.2319 255.97C88.6635 262.41 102.484 274.136 111.515 289.299C114.936 295.284 114.052 302.8 109.336 307.828C101.905 315.062 91.867 318.988 81.5 318.716V318.716ZM66.3004 298.612C75.8367 303.518 87.2926 302.816 96.1585 296.782C88.8206 285.277 77.9854 276.43 65.2457 271.541C52.3671 265.72 42.9088 264.695 37.0626 268.474C37.0856 268.658 37.1262 268.839 37.1838 269.016C41.7991 282.848 52.5458 293.771 66.3004 298.612V298.612ZM36.0335 269.22L36.0207 269.232L36.0335 269.22Z" fill="#8A2BE3"/>
<path d="M79.3334 239.79C73.1006 239.524 67.68 235.436 65.7125 229.516C60.0705 212.421 61.4401 193.785 69.5209 177.699C80.0877 155.186 93.9262 150.233 103.68 150.036C110.065 150.202 115.636 154.416 117.534 160.515C122.223 176.021 121.007 192.715 114.12 207.378C106.433 225.961 94.8163 237.406 81.4036 239.615C80.7196 239.731 80.0271 239.79 79.3334 239.79V239.79ZM78.6251 222.777H78.5876H78.6251ZM101.797 167.342C94.067 168.883 88.4333 177.571 84.979 184.933C79.1417 196.41 77.7915 209.651 81.192 222.07C89.4397 217.474 95.5909 209.867 98.3585 200.84L98.367 200.82C103.401 190.408 104.615 178.558 101.797 167.342V167.342Z" fill="#8A2BE3"/>
<path d="M57.5256 247.766C47.7932 247.433 38.3739 244.244 30.4416 238.595L30.4083 238.574C14.1672 228.063 3.22647 211.079 0.370994 191.945C-1.03103 185.38 1.61212 178.611 7.09185 174.733C18.7825 167.795 33.4214 170.907 50.5837 183.966C64.7305 193.813 75.5965 207.679 81.7756 223.77C84.1856 230.037 82.3319 237.143 77.1676 241.434C71.4735 245.606 64.5841 247.827 57.5256 247.766V247.766ZM39.754 224.291C49.738 230.791 58.954 232.357 65.4129 228.757C60.1979 216.168 51.4755 205.343 40.284 197.57C33.1586 192.149 23.6294 186.482 17.1919 188.761C17.194 188.961 17.2094 189.16 17.238 189.358C19.3977 203.688 27.5949 216.406 39.754 224.291V224.291Z" fill="#8A2BE3"/>
<path d="M59.4584 186.845C59.2212 186.845 58.9873 186.836 58.7458 186.816C42.367 185.47 31.2796 159.899 28.7939 135.337C26.3064 111.386 30.7352 83.8535 44.0267 77.6113C46.7867 76.3147 50.0287 76.589 52.5316 78.3309C55.0344 80.0728 56.4179 83.0177 56.1608 86.0562C55.9037 89.0947 54.0451 91.7652 51.2852 93.0618C48.994 95.0244 43.356 110.341 45.7726 133.595C48.0809 156.424 57.2312 168.928 60.3185 169.833C62.5642 170.02 64.6421 171.096 66.0915 172.822C67.541 174.547 68.2421 176.78 68.0395 179.024C67.6376 183.461 63.9131 186.855 59.4584 186.845V186.845Z" fill="#8A2BE3"/>
<path d="M59.4541 186.845C55.7737 186.849 52.5054 184.492 51.3462 180.999C50.1869 177.506 51.3979 173.663 54.3503 171.466C56.9461 169.532 60.2588 155.832 56.5502 131.53C52.554 106.109 46.3631 94.6131 43.9917 93.0345C41.9368 92.1094 40.3368 90.4017 39.5472 88.2911C38.7577 86.1804 38.8441 83.8418 39.7873 81.7952C41.7708 77.502 46.8434 75.609 51.1546 77.5533C63.7711 83.228 70.2248 108.615 73.4172 128.915C75.9584 145.586 78.1796 174.995 64.5425 185.158C63.0728 186.254 61.2878 186.846 59.4541 186.845V186.845Z" fill="#8A2BE3"/>
<path d="M162.775 384.003C160.362 384.008 158.061 382.987 156.446 381.195C149.587 373.62 143.508 366.399 137.875 359.132C137.022 358.233 136.278 357.238 135.657 356.166L134.836 355.166C120.613 337.011 107.832 317.772 96.6108 297.624C96.4017 297.245 96.2209 296.851 96.0698 296.445L95.8991 296.149C95.5825 295.603 95.2702 295.053 94.9827 294.478C83.6233 273.953 73.9525 252.538 66.0657 230.445C65.5452 229.058 64.9786 227.449 64.5033 225.837L64.3616 225.41C59.109 210.628 54.6884 195.562 51.1205 180.285C50.4296 177.316 51.3756 174.203 53.602 172.12C55.8285 170.037 58.9971 169.299 61.9144 170.186C64.8316 171.073 67.0543 173.448 67.7451 176.418C71.1663 191.072 75.4063 205.522 80.4453 219.702C80.5118 219.885 80.5698 220.068 80.6202 220.255C80.7055 220.476 80.7789 220.697 80.8455 220.923C81.2116 222.169 81.6579 223.419 82.099 224.592C89.7291 245.962 99.0867 266.675 110.079 286.526L110.666 287.588C110.995 288.159 111.316 288.726 111.616 289.326C111.737 289.572 111.85 289.826 111.949 290.088C122.696 309.288 134.912 327.627 148.487 344.943L149.169 345.842L150.023 346.988C150.279 347.244 150.868 348.039 151.089 348.322C156.531 355.364 162.422 362.371 169.095 369.747C171.356 372.248 171.933 375.846 170.566 378.928C169.2 382.011 166.147 383.999 162.775 384.003V384.003Z" fill="#8A2BE3"/>
<path d="M363.126 364.274C360.61 364.275 358.138 363.616 355.958 362.362C342.85 354.92 333.612 339.186 329.983 318.074C325.816 301.563 328.867 284.059 338.375 269.932C342.501 264.615 349.647 262.669 355.9 265.161C366.037 269.42 379.249 279.815 384.787 305.236C389.73 323.562 386.125 343.14 374.978 358.503C372.102 362.118 367.745 364.24 363.126 364.274V364.274ZM364.396 347.528L364.421 347.541L364.396 347.528ZM350.959 281.67C345.351 291.889 343.862 303.864 346.796 315.145V315.17C347.853 327.268 353.558 338.486 362.713 346.466C369.698 335.235 371.653 321.59 368.104 308.849C366.806 297.658 360.5 287.661 350.959 281.67V281.67Z" fill="#8A2BE3"/>
<path d="M399.827 384.229C384.975 384.927 370.673 378.537 361.285 367.007C357.079 361.296 357.212 353.477 361.61 347.911C373.399 334.08 389.749 324.925 407.702 322.103C429.731 317.253 446.148 320.397 456.465 331.411C461.004 336.818 461.727 344.468 458.281 350.629C448.682 368.443 431.143 380.593 411.091 383.32L411.058 383.324C407.344 383.918 403.588 384.221 399.827 384.229V384.229ZM375.658 357.657C379.95 362.649 389.476 369.415 408.38 366.474C423.133 364.734 436.105 355.894 443.121 342.799C443.192 342.66 443.245 342.513 443.279 342.361C437.175 336.644 426.438 335.449 411.334 338.783C397.639 340.825 385.053 347.482 375.658 357.653V357.657ZM444.01 343.091L444.031 343.111L444.01 343.091Z" fill="#8A2BE3"/>
<path d="M402.6 305.497C401.004 305.498 399.421 305.214 397.925 304.659C384.504 299.801 373.917 286.138 368.154 266.209C362.557 250.579 363.422 233.362 370.557 218.371C373.577 212.515 380.103 209.358 386.569 210.626C396.673 212.876 410.394 220.601 418.54 244.646C425.133 261.915 424.073 281.173 415.623 297.613C413.007 302.384 408.04 305.391 402.6 305.497V305.497ZM403.75 288.618L403.783 288.63L403.75 288.618ZM384.892 227.867C380.691 238.642 380.567 250.578 384.542 261.438L384.55 261.459C386.657 272.064 392.77 281.449 401.617 287.664C406.827 275.739 407.1 262.235 402.375 250.109C400.079 240.496 393.691 232.369 384.893 227.865L384.892 227.867Z" fill="#8A2BE3"/>
<path d="M430.746 318.723C420.383 318.997 410.348 315.072 402.921 307.84C398.196 302.812 397.307 295.289 400.729 289.299C409.77 274.129 423.602 262.399 440.046 255.961C460.025 246.94 475.817 246.94 486.971 255.969C491.989 260.66 493.69 267.91 491.283 274.344C485.079 293.091 470.583 307.933 451.987 314.578L451.954 314.59C445.189 317.225 438.006 318.625 430.746 318.723ZM416.092 296.785C424.956 302.825 436.415 303.527 445.95 298.614C459.703 293.774 470.45 282.852 475.067 269.023C475.124 268.846 475.164 268.665 475.188 268.481C469.321 264.701 459.879 265.73 447.038 271.53C434.286 276.418 423.438 285.27 416.092 296.782V296.785ZM476.238 269.239L476.25 269.251L476.238 269.239Z" fill="#8A2BE3"/>
<path d="M432.896 239.782C432.192 239.788 431.489 239.731 430.796 239.612C417.433 237.412 405.817 225.966 398.129 207.383C391.246 192.729 390.026 176.048 394.704 160.549C396.515 154.398 402.116 150.14 408.528 150.041C418.323 150.237 432.165 155.19 442.724 177.689C450.813 193.787 452.183 212.439 446.532 229.546C444.552 235.458 439.125 239.531 432.896 239.782ZM433.578 222.77L433.616 222.774L433.578 222.77ZM410.454 167.342C407.636 178.557 408.851 190.407 413.888 200.816L413.896 200.837C416.662 209.866 422.811 217.475 431.059 222.074C434.462 209.647 433.108 196.398 427.263 184.915C423.821 177.582 418.201 168.908 410.454 167.342V167.342Z" fill="#8A2BE3"/>
<path d="M454.725 247.766C447.67 247.826 440.784 245.606 435.092 241.437C429.92 237.145 428.062 230.031 430.475 223.757C436.664 207.658 447.541 193.786 461.7 183.937C478.838 170.903 493.471 167.786 505.171 174.737C510.644 178.616 513.282 185.381 511.879 191.941C509.024 211.075 498.083 228.059 481.842 238.57L481.809 238.591C473.877 244.241 464.458 247.432 454.725 247.766V247.766ZM446.817 228.745C453.259 232.362 462.496 230.803 472.496 224.291C484.656 216.406 492.853 203.688 495.012 189.358C495.041 189.16 495.056 188.96 495.059 188.761C488.608 186.507 479.088 192.157 472.001 197.55C460.79 205.32 452.049 216.148 446.817 228.745V228.745Z" fill="#8A2BE3"/>
<path d="M452.796 186.845C448.223 186.839 444.467 183.228 444.281 178.658C444.095 174.088 447.546 170.184 452.104 169.807C455.021 168.928 464.171 156.424 466.475 133.62C468.896 110.341 463.258 95.0279 460.609 92.8493C458.582 91.8942 457.026 90.1641 456.289 88.0487C455.552 85.9333 455.697 83.6104 456.692 81.6032C458.797 77.3418 463.936 75.5632 468.226 77.6113C481.517 83.8535 485.946 111.386 483.454 135.362C480.971 159.899 469.886 185.47 453.502 186.818C453.267 186.836 453.029 186.845 452.796 186.845Z" fill="#8A2BE3"/>
<path d="M452.796 186.845C450.963 186.846 449.178 186.254 447.709 185.158C434.071 175.003 436.292 145.586 438.826 128.953C442.026 108.616 448.479 83.228 461.098 77.5533C465.381 75.5869 470.448 77.4654 472.415 81.7492C474.381 86.0329 472.502 91.0996 468.219 93.0661C465.811 94.7574 459.673 106.265 455.693 131.566C451.993 155.832 455.306 169.532 457.902 171.466C460.854 173.663 462.065 177.506 460.906 180.999C459.747 184.492 456.479 186.849 452.798 186.845H452.796Z" fill="#8A2BE3"/>
<path d="M349.48 384.003C346.107 384.001 343.052 382.012 341.685 378.929C340.318 375.845 340.896 372.246 343.158 369.745C349.834 362.37 355.725 355.362 361.164 348.32C361.385 348.034 361.624 347.762 361.881 347.507L363.085 345.84C363.16 345.736 363.682 345.045 363.767 344.941C377.342 327.625 389.558 309.286 400.304 290.086C400.404 289.824 400.517 289.57 400.638 289.324C400.938 288.727 401.258 288.158 401.588 287.587L402.021 286.819C413.051 266.918 422.443 246.152 430.105 224.728C430.596 223.415 431.043 222.168 431.408 220.919C431.475 220.694 431.55 220.473 431.634 220.252C431.684 220.065 431.742 219.882 431.809 219.698C436.848 205.519 441.088 191.068 444.509 176.415C445.577 171.824 450.164 168.968 454.755 170.036C459.346 171.104 462.201 175.691 461.133 180.282C457.566 195.559 453.145 210.624 447.892 225.407L447.751 225.834C447.275 227.446 446.704 229.059 446.138 230.58C438.22 252.728 428.514 274.196 417.117 294.772C416.984 295.051 416.671 295.6 416.355 296.147L416.184 296.443C416.033 296.848 415.852 297.242 415.643 297.621C404.352 317.881 391.491 337.225 377.18 355.477L376.609 356.245C375.959 357.276 375.211 358.241 374.376 359.128C368.744 366.395 362.664 373.616 355.806 381.191C354.192 382.983 351.892 384.006 349.48 384.003V384.003Z" fill="#8A2BE3"/>
<path d="M281.725 332.803H230.525C225.812 332.803 221.992 328.983 221.992 324.27V261.209C221.992 256.496 225.812 252.675 230.525 252.675C235.238 252.675 239.059 256.496 239.059 261.209V315.737H273.192V261.209C273.192 256.496 277.012 252.675 281.725 252.675C286.438 252.675 290.259 256.496 290.259 261.209V324.27C290.259 328.983 286.438 332.803 281.725 332.803Z" fill="#8A2BE3"/>
<path d="M150.636 0.00317383H261.57H361.614V17.0698H261.57H150.636V0.00317383Z" fill="white"/>
<path d="M193.305 8.53651C193.292 3.82932 189.479 0.0167656 184.772 0.00317383H150.639V17.0698H184.772C189.479 17.0562 193.292 13.2437 193.305 8.53651Z" fill="#8A2BE3"/>
<path d="M361.612 17.0698V0.00317383H253.039C248.326 0.00317383 244.505 3.82368 244.505 8.53651C244.505 13.2493 248.326 17.0698 253.039 17.0698H361.612Z" fill="#8A2BE3"/>
<path d="M218.905 0.00317383C216.647 0.0369564 214.483 0.920526 212.847 2.47784L211.823 3.75784C211.5 4.23363 211.242 4.75013 211.055 5.29384C210.808 5.77734 210.636 6.29511 210.543 6.82984C210.446 7.39408 210.389 7.96435 210.372 8.53651C210.404 10.7959 211.287 12.9599 212.847 14.5952C216.244 17.8161 221.567 17.8161 224.964 14.5952C225.735 13.7791 226.343 12.8233 226.756 11.7792C227.193 10.7533 227.425 9.65162 227.439 8.53651C227.404 6.27774 226.521 4.1147 224.964 2.47784C223.327 0.921099 221.164 0.0376253 218.905 0.00317383V0.00317383Z" fill="#8A2BE3"/>
<path d="M256.125 281.603C250.314 281.606 244.607 280.06 239.592 277.124C122.003 208.345 118.284 78.428 134.632 12.5054C136.454 5.15074 143.061 -0.0101072 150.638 0.00320612C155.351 0.00320612 159.171 3.82371 159.171 8.53654C159.171 13.2494 155.351 17.0699 150.638 17.0699C149.529 23.3572 111.829 182.617 248.213 262.395C253.1 265.25 259.146 265.252 264.034 262.399C400.424 182.617 362.725 23.3572 361.055 16.6159C358.844 16.6569 356.712 15.7928 355.153 14.224C353.595 12.6551 352.745 10.5177 352.8 8.30699C352.953 3.58603 356.891 -0.124628 361.613 0.00320612C369.191 -0.0110934 375.8 5.15084 377.621 12.5071C393.967 78.428 390.251 208.341 272.654 277.126C267.64 280.06 261.935 281.605 256.125 281.603V281.603Z" fill="#8A2BE3"/>
<path d="M138.792 119.47H123.859C97.9501 119.441 76.9544 98.445 76.9253 72.5365C76.9554 46.6285 97.9505 25.6333 123.859 25.6032H139.133C143.846 25.6032 147.667 29.4237 147.667 34.1365C147.667 38.8494 143.846 42.6699 139.133 42.6699H123.859C107.375 42.6976 94.0197 56.0531 93.992 72.5365C94.0117 89.0233 107.372 102.383 123.859 102.403H138.792C143.505 102.403 147.325 106.224 147.325 110.937C147.325 115.649 143.505 119.47 138.792 119.47Z" fill="#8A2BE3"/>
<path d="M388.392 119.47H373.459C368.746 119.47 364.925 115.649 364.925 110.937C364.925 106.224 368.746 102.403 373.459 102.403H388.392C404.879 102.383 418.239 89.0233 418.259 72.5365C418.231 56.0531 404.875 42.6976 388.392 42.6699H373.117C368.404 42.6699 364.584 38.8494 364.584 34.1365C364.584 29.4237 368.404 25.6032 373.117 25.6032H388.392C414.3 25.6333 435.295 46.6285 435.325 72.5365C435.296 98.445 414.3 119.441 388.392 119.47Z" fill="#8A2BE3"/>
</svg>
