<svg width="444" height="513" viewBox="0 0 444 513" fill="none" xmlns="http://www.w3.org/2000/svg">
<path d="M119.567 435.203H324.367V494.936C324.367 499.649 320.546 503.469 315.834 503.469H128.1C123.387 503.469 119.567 499.649 119.567 494.936V435.203Z" fill="#AF71E8"/>
<path d="M119.567 435.203H298.767V494.936C298.767 499.649 294.946 503.469 290.234 503.469H128.1C123.387 503.469 119.567 499.649 119.567 494.936V435.203Z" fill="#AF71E8"/>
<path d="M204.9 204.803H239.034V313.347H204.9V204.803Z" fill="#CAD9FC"/>
<path d="M204.9 204.803H221.967V313.347H204.9V204.803Z" fill="#E8EDFC"/>
<path d="M187.834 418.136V315.736H256.1V418.136" fill="#AF71E8"/>
<path d="M187.834 418.136V315.736H230.5V418.136" fill="#AF71E8"/>
<path d="M228.602 23.8601L261.399 89.8586C262.483 92.0319 264.565 93.5342 266.969 93.8778L340.305 104.459C343.084 104.844 345.399 106.779 346.27 109.445C347.141 112.111 346.416 115.04 344.401 116.991L291.335 168.362C289.593 170.044 288.796 172.479 289.207 174.865L301.735 247.398C302.195 250.168 301.046 252.958 298.77 254.601C296.493 256.243 293.483 256.454 291 255.144L225.406 220.897C223.248 219.773 220.677 219.773 218.519 220.897L152.932 255.142C150.449 256.452 147.439 256.241 145.163 254.599C142.886 252.956 141.737 250.166 142.197 247.397L154.725 174.863C155.136 172.477 154.339 170.042 152.597 168.36L99.5306 116.99C97.5159 115.038 96.791 112.108 97.6632 109.442C98.5355 106.776 100.852 104.841 103.631 104.457L176.967 93.8761C179.371 93.5325 181.454 92.0302 182.538 89.8569L215.335 23.8627C216.595 21.3548 219.161 19.7717 221.967 19.7711C224.774 19.7706 227.341 21.3527 228.602 23.8601V23.8601Z" fill="#AF71E8"/>
<path d="M276.495 95.2346C242.191 113.155 180.068 157.101 178.874 241.581L152.932 255.149C150.443 256.449 147.434 256.231 145.158 254.587C142.882 252.943 141.729 250.155 142.18 247.384L154.724 174.851C155.12 172.47 154.323 170.046 152.591 168.365L99.5136 116.995C97.5067 115.038 96.7864 112.112 97.6563 109.447C98.5263 106.783 100.835 104.845 103.61 104.451L176.996 93.8693C179.383 93.5026 181.447 92.01 182.543 89.8586L215.311 23.8959C216.579 21.3838 219.153 19.7994 221.967 19.7994C224.781 19.7994 227.355 21.3838 228.623 23.8959L261.391 89.8586C262.487 92.01 264.551 93.5026 266.938 93.8693L276.495 95.2346Z" fill="#DFC5F8"/>
<path d="M264.634 290.136H179.3C174.587 290.136 170.767 293.956 170.767 298.669V315.736C170.767 320.449 174.587 324.269 179.3 324.269H264.634C269.346 324.269 273.167 320.449 273.167 315.736V298.669C273.167 293.956 269.346 290.136 264.634 290.136Z" fill="#DFC5F8"/>
<path d="M239.034 290.136H179.3C174.587 290.136 170.767 293.956 170.767 298.669V315.736C170.767 320.449 174.587 324.269 179.3 324.269H239.034C243.746 324.269 247.567 320.449 247.567 315.736V298.669C247.567 293.956 243.746 290.136 239.034 290.136Z" fill="#DFC5F8"/>
<path d="M332.9 409.603H111.034C106.321 409.603 102.5 413.423 102.5 418.136V435.203C102.5 439.915 106.321 443.736 111.034 443.736H332.9C337.613 443.736 341.434 439.915 341.434 435.203V418.136C341.434 413.423 337.613 409.603 332.9 409.603Z" fill="#DFC5F8"/>
<path d="M307.3 409.603H111.034C106.321 409.603 102.5 413.423 102.5 418.136V435.203C102.5 439.915 106.321 443.736 111.034 443.736H307.3C312.013 443.736 315.834 439.915 315.834 435.203V418.136C315.834 413.423 312.013 409.603 307.3 409.603Z" fill="#DFC5F8"/>
<path d="M213.434 409.603V324.269H204.9C200.187 324.269 196.367 320.449 196.367 315.736V298.669C196.367 293.956 200.187 290.136 204.9 290.136H179.3C174.587 290.136 170.767 293.956 170.767 298.669V315.736C170.767 320.449 174.587 324.269 179.3 324.269H187.834V409.603H213.434Z" fill="white"/>
<path d="M230.5 290.136V221.869L204.9 230.403V290.136H230.5Z" fill="white"/>
<path d="M152.591 168.365C154.064 169.872 154.819 171.939 154.663 174.041C154.699 174.313 154.719 174.587 154.723 174.862L154.581 175.678L142.18 247.384C141.932 248.782 142.101 250.223 142.668 251.525C144.544 255.313 149.094 256.92 152.932 255.149L161.524 250.656L167.78 247.389V247.384L180.181 175.678L180.323 174.862C180.319 174.587 180.299 174.313 180.263 174.041C180.419 171.939 179.664 169.872 178.191 168.365L125.114 116.995C124.457 116.331 123.933 115.547 123.572 114.686C122.642 112.589 122.746 110.178 123.852 108.169C124.959 106.159 126.94 104.782 129.21 104.446L199.729 94.2789L202.565 93.8693C204.154 93.3481 205.615 92.4944 206.849 91.3648C207.346 90.9222 207.779 90.4124 208.135 89.8501L231.887 42.0574L234.767 36.2633L228.623 23.8959L228.61 23.8763L228.602 23.8593C227.342 21.3502 224.774 19.7665 221.967 19.7665C219.159 19.7665 216.592 21.3502 215.332 23.8593L215.324 23.8763L215.311 23.8959L206.287 42.0617L182.535 89.8586C181.504 91.3524 180.085 92.5372 178.431 93.2856C177.965 93.5362 177.474 93.7348 176.965 93.8778L174.129 94.2874L103.61 104.451C101.34 104.787 99.3588 106.164 98.2524 108.173C97.1461 110.183 97.0422 112.593 97.9716 114.691C98.3331 115.552 98.8566 116.335 99.5136 116.999L152.591 168.365Z" fill="white"/>
<path d="M145.167 494.936V443.736H136.634C131.921 443.736 128.1 439.915 128.1 435.203V418.136C128.1 413.423 131.921 409.603 136.634 409.603H111.034C106.321 409.603 102.5 413.423 102.5 418.136V435.203C102.5 439.915 106.321 443.736 111.034 443.736H119.567V494.936C119.567 499.649 123.387 503.469 128.1 503.469H153.7C148.987 503.469 145.167 499.649 145.167 494.936Z" fill="white"/>
<path d="M256.1 418.136C251.387 418.136 247.567 414.315 247.567 409.603V332.803H196.367V409.603C196.367 414.315 192.546 418.136 187.834 418.136C183.121 418.136 179.3 414.315 179.3 409.603V324.269C179.3 319.556 183.121 315.736 187.834 315.736H256.1C260.813 315.736 264.634 319.556 264.634 324.269V409.603C264.634 414.315 260.813 418.136 256.1 418.136Z" fill="#8A2BE3"/>
<path d="M89.5833 348.353C84.8705 348.394 81.0165 344.607 80.9753 339.894C80.9341 335.181 84.7211 331.328 89.434 331.286C94.3918 331.197 99.3397 330.807 104.25 330.119C100.652 325.427 97.3905 320.485 94.4917 315.331C92.1836 311.221 93.6443 306.019 97.7544 303.71C101.864 301.402 107.067 302.863 109.376 306.973C114.027 315.255 119.757 322.883 126.417 329.656C128.555 331.834 129.368 334.989 128.548 337.929C127.727 340.869 125.399 343.147 122.442 343.903C111.748 346.648 100.772 348.142 89.7335 348.353H89.5833Z" fill="#8A2BE3"/>
<path d="M74.7003 319.311C74.3043 319.309 73.9089 319.28 73.5167 319.225C63.3642 317.782 53.4319 315.077 43.9504 311.171C41.0808 310.049 39.0389 307.467 38.6081 304.416C38.1774 301.365 39.4248 298.319 41.8716 296.447C44.3184 294.574 47.5846 294.166 50.417 295.379C54.2507 296.951 58.171 298.304 62.1588 299.43C60.6782 293.817 59.5177 288.124 58.6832 282.379C58.1664 279.327 59.3432 276.234 61.7583 274.297C64.1735 272.361 67.448 271.884 70.3152 273.051C73.1823 274.219 75.1922 276.848 75.5673 279.921C76.9534 289.437 79.3415 298.781 82.6918 307.796C83.6674 310.414 83.2988 313.345 81.7052 315.641C80.1116 317.936 77.4949 319.306 74.7003 319.308V319.311Z" fill="#8A2BE3"/>
<path d="M43.1168 279.027C41.5759 279.028 40.0637 278.611 38.7418 277.819C29.9157 272.493 21.717 266.191 14.3006 259.032C11.0083 255.753 10.9453 250.442 14.1588 247.085C17.3723 243.728 22.6808 243.56 26.1005 246.706C28.9506 249.432 31.8673 251.986 34.8506 254.369C35.1757 249.016 35.7423 243.707 36.5419 238.482C37.3324 233.9 41.6463 230.794 46.2427 231.498C50.8392 232.202 54.0259 236.456 53.4089 241.065C51.9451 250.72 51.3565 260.488 51.6501 270.249C51.7166 272.554 50.8469 274.789 49.2394 276.442C47.6318 278.096 45.4232 279.029 43.1168 279.028V279.027Z" fill="#8A2BE3"/>
<path d="M25.5671 228.927C22.9977 228.926 20.565 227.769 18.9418 225.778C12.1583 217.368 6.18973 208.333 1.11655 198.794C-0.416141 196.101 -0.367854 192.788 1.24269 190.14C2.85324 187.492 5.77282 185.925 8.86963 186.048C11.9664 186.17 14.7536 187.961 16.1506 190.728C18.1502 194.444 20.25 198.028 22.4499 201.48C24.0584 197.026 25.8171 192.696 27.7252 188.526C28.9391 185.67 31.6075 183.699 34.6939 183.377C37.7803 183.055 40.798 184.434 42.5747 186.978C44.3514 189.522 44.607 192.831 43.2422 195.617C39.3176 204.286 36.169 213.285 33.8334 222.509C32.8614 226.281 29.4625 228.92 25.5671 228.926V228.927Z" fill="#8A2BE3"/>
<path d="M22.0583 174.619C21.8586 174.619 21.6589 174.611 21.4507 174.598C18.2114 174.366 15.3847 172.315 14.159 169.307C9.90551 158.823 6.55983 147.993 4.15874 136.937C3.43582 133.933 4.393 130.773 6.66123 128.676C8.92946 126.578 12.1544 125.87 15.0927 126.825C18.031 127.78 20.2236 130.248 20.8252 133.279C21.8586 137.966 23.0507 142.58 24.4007 147.087C26.9334 143.695 29.561 140.472 32.2838 137.416C35.4249 133.9 40.8217 133.595 44.3379 136.736C47.8542 139.878 48.1583 145.274 45.0172 148.791C39.1129 155.455 33.8895 162.692 29.4251 170.395C27.8926 173.01 25.0893 174.618 22.0583 174.619V174.619Z" fill="#8A2BE3"/>
<path d="M32.5833 121.715C28.242 121.72 24.5919 118.459 24.1088 114.144C22.8139 102.661 22.5239 91.0867 23.2418 79.5529C23.4097 76.4942 25.2042 73.7601 27.9437 72.3892C30.6832 71.0184 33.9473 71.2211 36.4961 72.9205C39.0449 74.6199 40.4872 77.555 40.2752 80.611C39.9416 85.9691 39.8485 91.3443 39.9834 96.6904C43.3672 94.407 46.8693 92.304 50.4751 90.3902C53.1723 88.9356 56.4425 89.0389 59.0425 90.661C61.6425 92.283 63.1731 95.1747 63.0525 98.2369C62.9318 101.299 61.1785 104.061 58.4589 105.474C51.1831 109.372 44.3894 114.11 38.217 119.59C36.6596 120.96 34.657 121.715 32.5833 121.715V121.715Z" fill="#8A2BE3"/>
<path d="M57.1498 75.8196C54.6139 75.8167 52.2103 74.6874 50.5893 72.7372C48.9683 70.787 48.2974 68.2175 48.7581 65.7238C50.8654 54.3592 54.1544 43.246 58.5714 32.565C60.3779 28.2105 65.3722 26.145 69.7266 27.9514C74.0811 29.7578 76.1466 34.7522 74.3402 39.1066C72.1716 44.3347 70.3079 49.6841 68.7585 55.128C73.1984 54.1775 77.693 53.5038 82.2165 53.1107C84.4778 52.8821 86.7354 53.5785 88.4749 55.0414C90.2144 56.5043 91.2878 58.609 91.4504 60.876C91.8542 65.5695 88.3783 69.7024 83.685 70.1091C75.6057 70.8272 67.652 72.5792 60.0187 75.3221C59.098 75.6513 58.1275 75.8196 57.1498 75.8196V75.8196Z" fill="#8A2BE3"/>
<path d="M124.084 47.7398C123.234 47.7379 122.388 47.6103 121.576 47.3609C113.016 44.717 104.174 43.0975 95.2333 42.5362C92.2371 42.3521 89.5579 40.6073 88.1781 37.9413C86.7982 35.2754 86.9207 32.0805 88.5005 29.5279C94.6933 19.5373 102.158 10.394 110.708 2.32795C114.137 -0.907647 119.539 -0.751198 122.775 2.67739C126.011 6.10597 125.854 11.5084 122.426 14.7439C118.299 18.6328 114.458 22.8145 110.934 27.2564C116.225 28.2002 121.454 29.4652 126.592 31.0443C130.638 32.2784 133.169 36.2907 132.541 40.4741C131.912 44.6575 128.314 47.749 124.084 47.7398V47.7398Z" fill="#8A2BE3"/>
<path d="M354.35 348.353H354.2C343.162 348.141 332.186 346.648 321.492 343.903C318.535 343.147 316.207 340.869 315.386 337.929C314.566 334.989 315.379 331.834 317.517 329.656C324.177 322.883 329.907 315.255 334.558 306.973C336.051 304.314 338.849 302.654 341.898 302.618C344.948 302.581 347.784 304.175 349.34 306.797C350.896 309.419 350.935 312.673 349.442 315.331C346.543 320.485 343.282 325.427 339.683 330.119C344.594 330.807 349.542 331.197 354.5 331.286C359.213 331.327 363 335.181 362.958 339.894C362.917 344.607 359.063 348.394 354.35 348.353V348.353Z" fill="#8A2BE3"/>
<path d="M369.233 319.311C366.439 319.309 363.822 317.939 362.229 315.643C360.635 313.348 360.266 310.417 361.242 307.798C364.592 298.784 366.98 289.44 368.366 279.923C368.742 276.85 370.751 274.222 373.619 273.054C376.486 271.886 379.76 272.363 382.175 274.3C384.591 276.237 385.767 279.329 385.251 282.382C384.416 288.126 383.256 293.819 381.775 299.432C385.763 298.306 389.683 296.954 393.517 295.381C396.349 294.168 399.615 294.577 402.062 296.449C404.509 298.322 405.756 301.368 405.326 304.419C404.895 307.47 402.853 310.051 399.983 311.173C390.502 315.079 380.57 317.785 370.417 319.228C370.025 319.282 369.629 319.31 369.233 319.311V319.311Z" fill="#8A2BE3"/>
<path d="M400.817 279.027C398.511 279.028 396.302 278.096 394.695 276.442C393.087 274.788 392.217 272.554 392.284 270.248C392.577 260.487 391.989 250.719 390.525 241.064C389.908 236.455 393.095 232.201 397.691 231.497C402.288 230.793 406.601 233.899 407.392 238.481C408.192 243.706 408.757 249.015 409.083 254.368C412.067 251.989 414.983 249.435 417.833 246.706C421.253 243.559 426.562 243.728 429.775 247.084C432.989 250.441 432.926 255.752 429.633 259.031C422.217 266.191 414.018 272.493 405.192 277.818C403.87 278.61 402.358 279.028 400.817 279.027V279.027Z" fill="#8A2BE3"/>
<path d="M418.367 228.927C414.471 228.921 411.072 226.283 410.1 222.511C407.765 213.287 404.616 204.287 400.692 195.619C399.327 192.832 399.582 189.524 401.359 186.98C403.136 184.436 406.154 183.057 409.24 183.379C412.326 183.7 414.995 185.672 416.209 188.528C418.117 192.698 419.878 197.028 421.484 201.481C423.684 198.031 425.784 194.447 427.783 190.729C429.18 187.963 431.967 186.171 435.064 186.049C438.161 185.927 441.081 187.494 442.691 190.141C444.302 192.789 444.35 196.102 442.817 198.796C437.744 208.334 431.775 217.369 424.992 225.778C423.369 227.769 420.936 228.926 418.367 228.927V228.927Z" fill="#8A2BE3"/>
<path d="M421.876 174.619C418.845 174.619 416.042 173.013 414.509 170.399C410.044 162.696 404.821 155.458 398.917 148.794C395.776 145.278 396.08 139.881 399.596 136.74C403.112 133.599 408.509 133.903 411.65 137.419C414.367 140.469 416.995 143.693 419.533 147.09C420.883 142.582 422.075 137.97 423.109 133.282C423.71 130.252 425.903 127.783 428.841 126.828C431.779 125.873 435.004 126.581 437.273 128.679C439.541 130.777 440.498 133.937 439.775 136.94C437.374 147.997 434.028 158.827 429.775 169.311C428.549 172.318 425.723 174.369 422.483 174.601C422.275 174.611 422.074 174.619 421.876 174.619Z" fill="#8A2BE3"/>
<path d="M411.351 121.715C409.277 121.715 407.275 120.959 405.719 119.59C399.546 114.11 392.751 109.373 385.475 105.475C381.35 103.25 379.791 98.1143 381.984 93.972C384.176 89.8296 389.299 88.2308 393.459 90.3911C397.066 92.3048 400.569 94.4077 403.955 96.6913C404.088 91.3451 403.997 85.97 403.663 80.6119C403.451 77.5559 404.893 74.6207 407.442 72.9214C409.991 71.222 413.255 71.0192 415.994 72.3901C418.734 73.7609 420.528 76.495 420.696 79.5538C421.414 91.0876 421.124 102.662 419.829 114.145C419.346 118.46 415.696 121.72 411.355 121.716L411.351 121.715Z" fill="#8A2BE3"/>
<path d="M386.784 75.8196C385.807 75.8199 384.837 75.6522 383.917 75.3238C376.283 72.5809 368.33 70.8289 360.25 70.1108C355.557 69.7041 352.081 65.5712 352.485 60.8777C352.643 58.6089 353.715 56.5014 355.456 55.0377C357.197 53.5739 359.457 52.8791 361.719 53.1124C366.242 53.5055 370.737 54.1792 375.177 55.1296C373.627 49.6852 371.763 44.3352 369.594 39.1066C368.425 36.2901 368.848 33.0641 370.703 30.6439C372.558 28.2236 375.563 26.9768 378.586 27.373C381.61 27.7693 384.192 29.7484 385.361 32.565C389.778 43.246 393.067 54.3592 395.174 65.7238C395.635 68.2175 394.964 70.787 393.343 72.7372C391.722 74.6874 389.318 75.8167 386.782 75.8196H386.784Z" fill="#8A2BE3"/>
<path d="M319.85 47.7398C315.62 47.749 312.021 44.6575 311.393 40.4741C310.765 36.2907 313.296 32.2784 317.342 31.0443C322.48 29.4652 327.709 28.2002 333 27.2564C329.476 22.8145 325.635 18.6328 321.508 14.7439C318.08 11.5084 317.923 6.10597 321.159 2.67739C324.394 -0.751198 329.797 -0.907647 333.225 2.32795C341.775 10.394 349.241 19.5373 355.433 29.5279C357.013 32.0805 357.136 35.2754 355.756 37.9413C354.376 40.6073 351.697 42.3521 348.701 42.5362C339.76 43.0975 330.917 44.717 322.358 47.3609C321.545 47.6103 320.7 47.7379 319.85 47.7398V47.7398Z" fill="#8A2BE3"/>
<path d="M294.458 264.54C291.88 264.538 289.341 263.91 287.058 262.711L221.967 228.723L156.883 262.706C151.524 265.519 145.033 265.049 140.134 261.495C135.234 257.941 132.774 251.917 133.783 245.949L146.209 174.053L93.5923 123.123C89.2357 118.908 87.6616 112.579 89.5362 106.815C91.4109 101.05 96.4065 96.8574 102.409 96.0112L175.158 85.5152L207.692 20.0645C210.393 14.6554 215.921 11.238 221.967 11.238C228.013 11.238 233.54 14.6554 236.242 20.0645L268.776 85.5152L341.525 96.0112C347.527 96.8568 352.522 101.049 354.397 106.812C356.271 112.576 354.698 118.905 350.342 123.119L297.725 174.053L310.15 245.944C310.93 250.566 309.637 255.297 306.614 258.879C303.591 262.461 299.145 264.532 294.458 264.54V264.54ZM221.967 211.519C224.538 211.518 227.071 212.139 229.35 213.327L292.934 246.531L280.8 176.318C279.909 171.144 281.638 165.864 285.417 162.219L336.717 112.557L265.751 102.317C260.566 101.575 256.078 98.3296 253.75 93.638L221.967 29.6858L190.175 93.6525C187.847 98.3378 183.363 101.578 178.183 102.317L107.217 112.557L158.525 162.221C162.298 165.862 164.023 171.134 163.133 176.301L151 246.531L214.574 213.336C216.856 212.144 219.392 211.521 221.967 211.519V211.519Z" fill="#8A2BE3"/>
<path d="M264.634 332.803H179.3C169.879 332.792 162.244 325.157 162.234 315.736V298.669C162.244 289.248 169.879 281.613 179.3 281.603H264.634C274.055 281.613 281.689 289.248 281.7 298.669V315.736C281.689 325.157 274.055 332.792 264.634 332.803ZM179.3 298.669V315.736H264.642L264.634 298.669H179.3Z" fill="#8A2BE3"/>
<path d="M239.034 298.669H204.9C200.187 298.669 196.367 294.849 196.367 290.136V228.013C196.367 223.3 200.187 219.48 204.9 219.48C209.613 219.48 213.434 223.3 213.434 228.013V281.603H230.5V228.013C230.5 223.3 234.321 219.48 239.034 219.48C243.746 219.48 247.567 223.3 247.567 228.013V290.136C247.567 294.849 243.746 298.669 239.034 298.669Z" fill="#8A2BE3"/>
<path d="M128.1 494.936H239.034H315.834V512.003H239.034H128.1V494.936Z" fill="white"/>
<path d="M170.767 503.469C170.753 498.762 166.941 494.95 162.234 494.936H128.1V512.003H162.234C166.941 511.989 170.753 508.176 170.767 503.469Z" fill="#8A2BE3"/>
<path d="M315.834 512.003V494.936H230.5C225.787 494.936 221.967 498.756 221.967 503.469C221.967 508.182 225.787 512.003 230.5 512.003H315.834Z" fill="#8A2BE3"/>
<path d="M196.367 494.936C194.108 494.97 191.945 495.853 190.308 497.411L189.284 498.691C188.961 499.166 188.703 499.683 188.516 500.227C188.27 500.71 188.097 501.228 188.004 501.763C187.908 502.327 187.851 502.897 187.834 503.469C187.865 505.729 188.749 507.893 190.308 509.528C192.303 511.599 195.217 512.508 198.036 511.937C200.854 511.367 203.186 509.396 204.218 506.712C204.655 505.686 204.887 504.584 204.9 503.469C204.923 501.199 204.032 499.015 202.426 497.41C200.821 495.805 198.637 494.913 196.367 494.936V494.936Z" fill="#8A2BE3"/>
<path d="M315.834 512.003C311.121 512.003 307.3 508.182 307.3 503.469C307.3 498.756 311.121 494.936 315.834 494.936V452.269H128.1V494.936C132.813 494.936 136.634 498.756 136.634 503.469C136.634 508.182 132.813 512.003 128.1 512.003C118.679 511.992 111.044 504.357 111.034 494.936V443.736C111.034 439.023 114.854 435.203 119.567 435.203H324.367C329.08 435.203 332.9 439.023 332.9 443.736V494.936C332.889 504.357 325.255 511.992 315.834 512.003Z" fill="#8A2BE3"/>
<path d="M332.9 452.269H111.034C101.612 452.259 93.9777 444.624 93.9669 435.203V418.136C93.9777 408.715 101.612 401.08 111.034 401.069H332.9C342.321 401.08 349.956 408.715 349.967 418.136V435.203C349.956 444.624 342.321 452.259 332.9 452.269ZM111.034 418.136V435.203H332.909L332.9 418.136H111.034Z" fill="#8A2BE3"/>
</svg>
