<svg width="291" height="512" viewBox="0 0 291 512" fill="none" xmlns="http://www.w3.org/2000/svg">
<path d="M213.333 372.032H76.8C103.509 321.856 113.493 254.457 117.248 203.382V203.281L140.715 188.86C143.147 187.358 146.219 187.358 148.651 188.86L172.885 203.782C176.725 254.858 186.709 322.057 213.333 372.032Z" fill="#AF71E8"/>
<path d="M187.733 372.032H76.8C98.5012 321.856 106.613 254.457 109.664 203.382V203.281L128.731 188.86C130.617 187.358 133.291 187.358 135.178 188.86L154.869 203.782C157.99 254.858 166.101 322.057 187.733 372.032Z" fill="#AF71E8"/>
<path d="M247.467 378.88V409.6H42.6666V378.88C41.8438 368.55 49.4237 359.454 59.7332 358.4H230.4C240.709 359.454 248.289 368.55 247.467 378.88Z" fill="white"/>
<path d="M221.867 378.88V409.6H42.6667V378.88C42.6667 367.616 49.3867 358.4 57.6001 358.4H206.933C215.147 358.4 221.867 367.616 221.867 378.88Z" fill="#DFC5F8"/>
<path d="M281.6 426.667V494.933C281.586 499.641 277.774 503.453 273.067 503.467H17.0666C12.3594 503.453 8.54682 499.641 8.53323 494.933V426.667C8.52415 419.874 11.2184 413.358 16.0213 408.555C20.8242 403.752 27.3409 401.058 34.1332 401.067H256C262.792 401.058 269.309 403.752 274.112 408.555C278.915 413.358 281.609 419.874 281.6 426.667Z" fill="white"/>
<path d="M256 426.667V494.933C256.197 499.417 252.747 503.223 248.266 503.467H16.2663C11.7857 503.222 8.33684 499.416 8.5334 494.933V426.667C7.88538 413.196 18.2646 401.743 31.7338 401.067H232.8C246.269 401.743 256.648 413.196 256 426.667Z" fill="#DFC5F8"/>
<path d="M212.139 150.443C210.084 152.394 209.153 155.25 209.664 158.037L221.099 224.939C221.638 228.134 220.319 231.359 217.694 233.26C215.069 235.161 211.593 235.408 208.725 233.899L195.584 226.987L172.885 215.04L148.651 202.325C146.16 201.045 143.205 201.045 140.715 202.325L131.84 206.933L117.248 214.613V214.699L80.64 233.899C78.0979 235.231 75.0564 235.194 72.5468 233.802C70.0373 232.41 68.3966 229.848 68.1813 226.987C68.1261 226.303 68.1548 225.615 68.2666 224.939L79.7866 158.037C80.2555 155.253 79.331 152.416 77.312 150.443L28.7573 103.083C26.4199 100.834 25.5702 97.4483 26.5687 94.362C27.5672 91.2758 30.2388 89.0297 33.4506 88.576L75.52 82.432L100.608 78.7627C103.376 78.3894 105.776 76.6614 107.008 74.1547L131.925 23.808L137.045 13.312C138.458 10.3779 141.426 8.51231 144.683 8.51231C147.939 8.51231 150.908 10.3779 152.32 13.312L182.357 74.1547C183.625 76.6678 186.052 78.3924 188.843 78.7627L255.915 88.576C259.131 89.0181 261.815 91.2541 262.831 94.338C263.847 97.422 263.017 100.815 260.693 103.083L212.139 150.443Z" fill="#DFC5F8"/>
<path d="M186.539 150.443C184.484 152.394 183.553 155.25 184.064 158.037L195.499 224.939C195.61 225.615 195.639 226.303 195.584 226.987L172.885 215.04L148.651 202.325C146.16 201.045 143.205 201.045 140.715 202.325L131.84 206.933L123.051 202.325C120.56 201.045 117.605 201.045 115.115 202.325L91.648 214.613V214.699L68.1813 226.987C68.1261 226.303 68.1548 225.615 68.2666 224.939L79.7866 158.037C80.2555 155.253 79.331 152.416 77.312 150.443L28.7573 103.083C26.4199 100.834 25.5702 97.4483 26.5687 94.362C27.5672 91.2758 30.2388 89.0297 33.4506 88.576L75.52 82.432L100.608 78.7627C103.376 78.3894 105.776 76.6614 107.008 74.1547L131.925 23.808L156.757 74.1547C158.025 76.6678 160.452 78.3924 163.243 78.7627L230.315 88.576C233.531 89.0181 236.215 91.254 237.231 94.338C238.247 97.422 237.417 100.815 235.093 103.083L186.539 150.443Z" fill="#DFC5F8"/>
<path d="M186.027 477.867H104.107C94.2217 478.304 85.8367 470.682 85.3333 460.8V443.733C85.8367 433.852 94.2217 426.229 104.107 426.667H186.027C195.911 426.229 204.296 433.852 204.8 443.733V460.8C204.296 470.682 195.911 478.304 186.027 477.867V477.867Z" fill="#DFC5F8"/>
<path d="M169.984 426.667C153.344 436.053 129.877 453.12 122.112 477.867H104.107C94.2285 478.286 85.8549 470.673 85.3333 460.8V443.733C85.8549 433.86 94.2285 426.248 104.107 426.667H169.984Z" fill="#E8EDFC"/>
<path d="M137.045 13.312L131.925 23.808L107.008 74.1547C105.776 76.6614 103.376 78.3894 100.608 78.7627L75.52 82.432L33.4506 88.576C30.2388 89.0297 27.5672 91.2758 26.5687 94.362C25.5702 97.4483 26.4199 100.834 28.7573 103.083L77.312 150.443C79.331 152.416 80.2555 155.253 79.7866 158.037L68.2666 224.939C68.1548 225.615 68.1261 226.303 68.1813 226.987C68.3966 229.848 70.0373 232.41 72.5468 233.802C75.0564 235.194 78.0979 235.231 80.64 233.899L93.7813 227.005V226.987C93.7261 226.303 93.7548 225.615 93.8666 224.939L105.387 158.037C105.855 155.253 104.931 152.416 102.912 150.443L54.3573 103.083C52.0199 100.834 51.1702 97.4483 52.1687 94.362C53.1672 91.2758 55.8388 89.0297 59.0506 88.576L101.12 82.432L126.208 78.7627C128.976 78.3894 131.376 76.6614 132.608 74.1547L157.513 23.8319L152.32 13.312C150.908 10.3779 147.939 8.51231 144.683 8.51231C141.426 8.51231 138.458 10.3779 137.045 13.312V13.312Z" fill="white"/>
<path d="M8.5334 426.667V494.933C8.33684 499.416 11.7857 503.222 16.2663 503.467H41.8663C37.3857 503.222 33.9368 499.416 34.1334 494.933V426.667C33.4854 413.196 43.8646 401.743 57.3338 401.067H68.2667V378.88C68.2667 367.616 74.9867 358.4 83.2001 358.4H107.64C123.409 315.381 130.774 257.233 134.146 213.333L107.317 233.334C104.097 275.908 95.6065 317.917 82.0404 358.4H57.6001C49.3867 358.4 42.6667 367.616 42.6667 378.88V401.067H31.7338C18.2646 401.743 7.88538 413.196 8.5334 426.667Z" fill="white"/>
<path d="M186.027 477.867H104.107C94.2217 478.304 85.8367 470.682 85.3333 460.8V443.733C85.8367 433.852 94.2217 426.229 104.107 426.667H186.027C195.911 426.229 204.296 433.852 204.8 443.733V460.8C204.296 470.682 195.911 478.304 186.027 477.867V477.867ZM102.56 460.583C103.07 460.693 103.587 460.765 104.107 460.8H186.027C186.704 460.847 187.373 460.631 187.894 460.196L187.733 443.842C187.687 444.138 187.071 443.733 186.027 443.733H104.107C103.43 443.686 102.761 443.903 102.239 444.338L102.4 460.692C102.413 460.612 102.466 460.583 102.559 460.583H102.56Z" fill="#8A2BE3"/>
<path d="M273.067 512H17.0667C7.64491 511.991 0.00940766 504.355 0 494.933V426.667C0.0211622 407.824 15.2908 392.554 34.1333 392.533H256C274.843 392.554 290.112 407.824 290.133 426.667V494.933C290.124 504.355 282.488 511.991 273.067 512ZM34.1333 409.6C24.7116 409.609 17.0761 417.245 17.0667 426.667V494.933H273.079L273.067 426.667C273.057 417.245 265.422 409.609 256 409.6H34.1333Z" fill="#8A2BE3"/>
<path d="M69.563 353.877C87.3841 322.647 99.047 288.286 103.919 252.66C106.035 239.83 107.607 226.881 108.746 213.88L125.75 215.347C124.576 228.745 122.955 242.121 120.758 255.438C115.538 293.293 103.07 329.787 84.0372 362.923L69.563 353.877Z" fill="white"/>
<path d="M95.3352 320.049C91.0054 318.449 86.1787 320.498 84.323 324.725C80.2021 334.828 75.2649 344.578 69.5603 353.879L84.0345 362.924C90.2416 352.821 95.6133 342.227 100.096 331.25C101.006 329.138 101.012 326.746 100.112 324.63C99.2129 322.515 97.4868 320.859 95.3352 320.049Z" fill="#8A2BE3"/>
<path d="M125.75 215.347L108.746 213.88C107.607 226.881 106.035 239.83 103.919 252.66L102.478 260.904C101.698 265.492 104.684 269.876 109.239 270.83C111.476 271.285 113.803 270.816 115.69 269.531C117.577 268.245 118.865 266.252 119.262 264.003L120.758 255.437C122.955 242.121 124.576 228.744 125.75 215.347V215.347Z" fill="#8A2BE3"/>
<path d="M95.045 293.423C94.47 295.558 94.7217 297.832 95.7499 299.79L96.6885 301.125C97.0537 301.57 97.4751 301.965 97.9421 302.302C98.3361 302.677 98.7832 302.992 99.269 303.236C99.7797 303.494 100.307 303.716 100.849 303.901C103.018 304.542 105.352 304.315 107.357 303.268C108.34 302.689 109.203 301.926 109.898 301.02C112.056 298.252 112.362 294.467 110.677 291.388C110.093 290.429 109.326 289.594 108.419 288.931C107.536 288.251 106.527 287.754 105.45 287.469C103.251 286.955 100.939 287.263 98.9516 288.335C97.0498 289.473 95.6529 291.292 95.045 293.423V293.423Z" fill="#8A2BE3"/>
<path d="M213.342 366.933C210.396 366.937 207.657 365.42 206.096 362.923C183.904 327.424 169.866 277.922 164.383 215.789C164.007 211.117 167.47 207.016 172.139 206.604C176.808 206.192 180.936 209.623 181.384 214.289C186.629 273.714 199.816 320.677 220.57 353.872C222.216 356.502 222.306 359.818 220.803 362.532C219.301 365.246 216.444 366.932 213.342 366.933Z" fill="#8A2BE3"/>
<path d="M247.467 409.6H42.6666C37.9538 409.6 34.1333 405.78 34.1333 401.067V375.467C34.1488 361.335 45.6012 349.882 59.7333 349.867H230.4C244.532 349.882 255.984 361.335 256 375.467V401.067C256 405.78 252.179 409.6 247.467 409.6ZM51.2 392.533H238.933V375.467C238.927 370.756 235.11 366.939 230.4 366.933H59.7333C55.023 366.939 51.2061 370.756 51.2 375.467V392.533Z" fill="#8A2BE3"/>
<path d="M76.6916 243.43C71.6649 243.412 66.9005 241.184 63.664 237.338C60.4274 233.492 59.0464 228.417 59.8877 223.462L71.354 156.587L22.7711 109.227C18.118 104.692 16.4434 97.9083 18.4517 91.7291C20.46 85.5498 25.8028 81.047 32.2329 80.1143L99.3706 70.3539L129.408 9.51637C132.281 3.68957 138.213 0 144.71 0C151.206 0 157.139 3.68957 160.012 9.51637L190.041 70.359L257.187 80.1135C263.615 81.0494 268.955 85.5537 270.961 91.7327C272.967 97.9116 271.291 104.693 266.638 109.227L218.058 156.587L229.529 223.462C230.628 229.865 227.996 236.338 222.739 240.157C217.482 243.976 210.513 244.478 204.762 241.453L144.708 209.88L84.6497 241.453C82.1971 242.749 79.4655 243.428 76.6916 243.43V243.43ZM144.702 192.804C147.471 192.804 150.198 193.477 152.648 194.767L212.703 226.34L201.233 159.467C200.284 153.931 202.12 148.283 206.141 144.363L254.725 97.0027L187.583 87.2482C182.024 86.4389 177.219 82.9467 174.734 77.9093L144.708 17.0667L144.679 17.0129L114.675 77.9093C112.191 82.9468 107.387 86.4389 101.829 87.2465L34.6871 97.0052L83.2708 144.359C87.293 148.283 89.1269 153.934 88.1749 159.472L76.7146 226.342L136.769 194.768C139.215 193.479 141.939 192.804 144.704 192.804H144.702Z" fill="#8A2BE3"/>
</svg>
