<svg width="427" height="512" viewBox="0 0 427 512" fill="none" xmlns="http://www.w3.org/2000/svg">
<path d="M230.09 230.4V291.413C218.836 289.043 207.211 289.043 195.957 291.413V230.4H230.09Z" fill="#E8EDFC"/>
<path d="M415.69 22.2721L281.29 196.267H144.757L213.024 107.947L287.264 11.8614C288.862 9.75307 291.359 8.52012 294.005 8.53343H408.949C412.203 8.52664 415.177 10.3756 416.611 13.2972C418.044 16.2189 417.687 19.7022 415.69 22.2721V22.2721Z" fill="#DFC5F8"/>
<path d="M390.09 22.2721L255.69 196.267H144.757L213.024 107.947L287.264 11.8614C288.862 9.75307 291.359 8.52012 294.005 8.53343H383.349C386.603 8.52664 389.577 10.3756 391.011 13.2972C392.444 16.2189 392.087 19.7022 390.09 22.2721V22.2721Z" fill="#DFC5F8"/>
<path d="M138.784 11.8614L213.024 107.947L144.757 196.267L10.3569 22.2721C8.36009 19.7022 8.00288 16.2189 9.43649 13.2972C10.8701 10.3756 13.8438 8.52664 17.0982 8.53343H132.042C134.688 8.52012 137.185 9.75307 138.784 11.8614V11.8614Z" fill="#DFC5F8"/>
<path d="M230.09 282.88C287.348 291.795 328.097 343.277 323.626 401.052C319.155 458.826 270.971 503.426 213.024 503.426C155.076 503.426 106.892 458.826 102.421 401.052C97.9501 343.277 138.7 291.795 195.957 282.88C207.271 281.173 218.776 281.173 230.09 282.88V282.88Z" fill="#AF71E8"/>
<path d="M295.882 318.805C293.152 318.123 290.336 317.611 287.52 317.184C274.907 315.25 262.073 315.25 249.461 317.184C189.192 326.569 144.751 378.471 144.757 439.467C144.699 455.575 147.862 471.532 154.058 486.4C114.845 461.803 95.0347 415.436 104.369 370.098C113.702 324.759 150.216 289.988 195.957 282.88C207.271 281.173 218.776 281.173 230.09 282.88C255.541 286.813 278.815 299.521 295.882 318.805V318.805Z" fill="#DFC5F8"/>
<path d="M213.024 107.947L144.757 196.267L131.018 178.432L178.89 116.48L199.285 90.1121L213.024 107.947Z" fill="#DFC5F8"/>
<path d="M195.957 230.4H230.09V256H195.957V230.4Z" fill="#CAD9FC"/>
<path d="M289.824 204.8V230.4C289.81 235.107 285.997 238.92 281.29 238.933H144.757C140.05 238.92 136.237 235.107 136.224 230.4V204.8C136.237 200.093 140.05 196.28 144.757 196.267H281.29C285.997 196.28 289.81 200.093 289.824 204.8Z" fill="#AF71E8"/>
<path d="M264.223 204.8V230.4C264.566 234.704 261.408 238.494 257.113 238.933H143.334C139.039 238.494 135.881 234.704 136.223 230.4V204.8C135.881 200.496 139.039 196.706 143.334 196.267H257.113C261.408 196.706 264.566 200.496 264.223 204.8Z" fill="#AF71E8"/>
<path d="M144.757 196.267H143.334C139.039 196.706 135.881 200.496 136.224 204.8V230.4C135.881 234.704 139.039 238.494 143.334 238.933H168.934C164.639 238.494 161.481 234.704 161.824 230.4V204.8C161.481 200.496 164.639 196.706 168.934 196.267H170.357L35.9569 22.2721C33.9601 19.7022 33.6029 16.2189 35.0365 13.2972C36.4701 10.3756 39.4438 8.52664 42.6982 8.53344H17.0982C13.8438 8.52664 10.8701 10.3756 9.43649 13.2972C8.00288 16.2189 8.36009 19.7022 10.3569 22.2721L144.757 196.267Z" fill="white"/>
<path d="M102.09 392.533C102.09 395.947 102.299 399.31 102.602 402.645C102.672 403.42 102.744 404.192 102.829 404.961C103.194 408.228 103.664 411.461 104.305 414.635C104.379 414.996 104.476 415.346 104.554 415.706C105.17 418.602 105.919 421.448 106.752 424.255C106.964 424.966 107.167 425.677 107.392 426.382C108.351 429.376 109.418 432.32 110.619 435.198C110.859 435.774 111.131 436.33 111.38 436.905C112.447 439.344 113.599 441.736 114.835 444.078C115.191 444.756 115.53 445.444 115.9 446.108C117.344 448.716 118.887 451.257 120.53 453.73C121.042 454.498 121.582 455.244 122.111 456C123.42 457.867 124.783 459.691 126.201 461.471C126.798 462.226 127.379 462.998 127.999 463.738C129.742 465.813 131.573 467.809 133.46 469.748C134.409 470.726 135.388 471.666 136.372 472.609C137.544 473.728 138.747 474.81 139.967 475.876C141.971 477.635 144.043 479.305 146.171 480.917C147.04 481.572 147.896 482.242 148.785 482.872C150.407 484.028 152.064 485.129 153.749 486.2C153.854 486.266 153.952 486.341 154.057 486.407L154.049 486.382C171.693 497.546 192.144 503.471 213.024 503.467C217.302 503.447 221.576 503.181 225.824 502.672C209.404 500.774 193.622 495.203 179.65 486.373L179.658 486.4C179.553 486.334 179.455 486.259 179.35 486.194C177.665 485.124 176.009 484.024 174.386 482.866C173.497 482.235 172.64 481.565 171.772 480.91C169.643 479.298 167.572 477.628 165.568 475.869C164.348 474.803 163.145 473.721 161.973 472.603C160.989 471.66 160.01 470.719 159.061 469.741C157.172 467.802 155.342 465.806 153.6 463.731C152.98 462.991 152.405 462.219 151.802 461.464C150.383 459.684 149.02 457.86 147.712 455.993C147.183 455.237 146.642 454.493 146.131 453.723C144.489 451.25 142.946 448.71 141.501 446.101C141.131 445.433 140.792 444.749 140.436 444.071C139.202 441.728 138.05 439.337 136.98 436.898C136.731 436.327 136.46 435.771 136.22 435.192C135.019 432.313 133.952 429.369 132.993 426.375C132.768 425.67 132.566 424.959 132.353 424.248C131.516 421.441 130.771 418.595 130.155 415.699C130.079 415.339 129.984 414.989 129.906 414.628C129.265 411.454 128.797 408.221 128.43 404.955C128.345 404.187 128.273 403.413 128.203 402.638C127.899 399.31 127.69 395.947 127.69 392.533C127.686 337.847 167.524 291.31 221.557 282.88V238.933H195.957V282.88C141.924 291.31 102.086 337.847 102.09 392.533V392.533Z" fill="white"/>
<path d="M17.0641 17.0668L84.8955 104.849L151.507 191.053L138.007 201.481L71.3958 115.285L3.56433 27.503L17.0641 17.0668Z" fill="white"/>
<path d="M36.404 56.0462C40.1208 53.1574 40.807 47.8093 37.94 44.0756L17.0683 17.0668L3.56348 27.5022L24.4369 54.511C27.3255 58.2258 32.6713 58.9116 36.404 56.0462Z" fill="#8A2BE3"/>
<path d="M138.004 201.485L151.509 191.049L79.6808 98.0942C76.7992 94.3649 71.4399 93.6778 67.7107 96.5594C63.9814 99.4411 63.2943 104.8 66.176 108.53L138.004 201.485Z" fill="#8A2BE3"/>
<path d="M58.81 71.0828C57.402 69.3162 55.3802 68.1447 53.1473 67.8017L51.5081 67.7727C50.9333 67.8079 50.3658 67.9189 49.8202 68.1029C49.287 68.2051 48.7721 68.3866 48.2927 68.6414C47.7889 68.91 47.3042 69.2131 46.842 69.5485C45.0738 70.955 43.9021 72.9776 43.5618 75.2112C43.1433 78.0552 44.206 80.916 46.3797 82.7971C48.5534 84.6781 51.5372 85.3189 54.2916 84.4963C55.3721 84.2153 56.3869 83.7247 57.2783 83.0525C59.0889 81.6828 60.272 79.6421 60.5609 77.3903C60.8499 75.1385 60.2204 72.8652 58.8143 71.0828H58.81Z" fill="#8A2BE3"/>
<path d="M281.29 204.8H144.757C140.044 204.8 136.224 200.98 136.224 196.267C136.224 191.554 140.044 187.733 144.757 187.733H281.29C286.003 187.733 289.824 191.554 289.824 196.267C289.824 200.98 286.003 204.8 281.29 204.8Z" fill="#8A2BE3"/>
<path d="M213.028 116.48C210.383 116.482 207.886 115.257 206.269 113.163L132.032 17.0668H17.0692C19.9504 20.797 19.2621 26.1566 15.5319 29.0378C11.8017 31.9189 6.4421 31.2307 3.56091 27.5005C-0.418171 22.3498 -1.1212 15.3843 1.74838 9.54232C4.61796 3.70037 10.5605 -0.000806255 17.0692 0.000102801H132.032C137.322 -0.0183008 142.317 2.43517 145.536 6.63306L219.776 102.729C221.765 105.304 222.116 108.786 220.683 111.706C219.249 114.627 216.279 116.478 213.026 116.479L213.028 116.48Z" fill="#8A2BE3"/>
<path d="M281.29 204.8H144.757C141.503 204.8 138.532 202.95 137.097 200.029C135.662 197.108 136.014 193.626 138.003 191.05L280.507 6.63307C283.728 2.43576 288.724 -0.0173842 294.015 0.000108177H408.978C415.487 -0.000800879 421.429 3.70038 424.299 9.54232C427.168 15.3843 426.465 22.3498 422.486 27.5005L288.044 201.483C286.428 203.575 283.934 204.8 281.29 204.8ZM162.136 187.733H277.099L408.978 17.0668H294.015L162.136 187.733Z" fill="#8A2BE3"/>
<path d="M281.29 247.467H144.757C135.335 247.457 127.7 239.822 127.69 230.4V204.8C127.7 195.378 135.335 187.743 144.757 187.733H281.29C290.712 187.743 298.347 195.378 298.357 204.8V230.4C298.347 239.822 290.712 247.457 281.29 247.467ZM144.757 204.8V230.4H281.303L281.29 204.8H144.757Z" fill="#8A2BE3"/>
<path d="M230.09 291.413C225.377 291.413 221.557 287.593 221.557 282.88V247.467H204.49V282.88C204.49 287.593 200.67 291.413 195.957 291.413C191.244 291.413 187.424 287.593 187.424 282.88V238.933C187.424 234.221 191.244 230.4 195.957 230.4H230.09C234.803 230.4 238.624 234.221 238.624 238.933V282.88C238.624 287.593 234.803 291.413 230.09 291.413Z" fill="#8A2BE3"/>
<path d="M213.024 512C147.044 512 93.5569 458.513 93.5569 392.533C93.5569 326.554 147.044 273.067 213.024 273.067C279.003 273.067 332.49 326.554 332.49 392.533C332.416 458.482 278.972 511.926 213.024 512ZM213.024 290.133C156.47 290.133 110.624 335.979 110.624 392.533C110.624 449.087 156.47 494.933 213.024 494.933C269.578 494.933 315.424 449.087 315.424 392.533C315.359 336.006 269.551 290.198 213.024 290.133Z" fill="#8A2BE3"/>
</svg>
