<svg width="410" height="512" viewBox="0 0 410 512" fill="none" xmlns="http://www.w3.org/2000/svg">
<path d="M393.348 174.172L385.326 164.017C379.46 156.559 376.818 147.065 377.988 137.649L379.609 125.02C381.471 108.596 372.05 92.9756 356.654 86.961L344.366 82.0117C335.456 78.3624 328.259 71.471 324.228 62.7264L319.022 51.0357C311.89 35.8669 295.803 27.0139 279.172 29.105L265.945 30.641C256.2 31.7378 246.392 29.2173 238.382 23.5584L227.716 15.9637C213.986 6.15039 195.536 6.15039 181.806 15.9637L171.14 23.5584C163.131 29.2173 153.322 31.7378 143.577 30.641L130.35 29.105C113.719 27.0139 97.6324 35.8669 90.4998 51.0357L85.2945 62.7264C81.263 71.471 74.0667 78.3624 65.1558 82.0117L52.8678 86.961C37.4724 92.9756 28.0509 108.596 29.9131 125.02L31.5345 137.649C32.7045 147.065 30.0623 156.559 24.1958 164.017L16.1745 174.172C5.93452 187.031 5.93452 205.259 16.1745 218.118L24.1958 228.273C30.0623 235.731 32.7045 245.225 31.5345 254.641L29.9131 267.27C28.0537 283.672 37.4809 299.267 52.8678 305.244L65.1558 310.278C74.0837 313.902 81.2884 320.801 85.2945 329.564L90.4998 341.254C95.9577 353.056 107.057 361.259 119.94 363.014L89.9878 469.084C89.1987 471.926 89.9332 474.974 91.9301 477.144C93.9271 479.315 96.9034 480.3 99.8011 479.75L138.286 472.412C140.934 471.887 143.671 472.683 145.625 474.545L174.638 500.913C176.819 502.905 179.878 503.62 182.716 502.802C185.554 501.984 187.762 499.749 188.548 496.902L211.332 416.262L262.873 474.63C264.836 476.853 267.81 477.9 270.732 477.395C273.654 476.891 276.106 474.908 277.209 472.156L291.886 435.889C292.91 433.416 295.021 431.556 297.604 430.854L335.492 420.785C338.337 420.003 340.581 417.813 341.43 414.987C342.28 412.161 341.616 409.097 339.673 406.876L298.798 360.54C307.752 356.924 314.986 350.026 319.022 341.254L324.228 329.564C328.234 320.801 335.439 313.902 344.366 310.278L356.654 305.244C372.041 299.267 381.469 283.672 379.609 267.27L377.988 254.641C376.818 245.225 379.46 235.731 385.326 228.273L393.348 218.118C403.588 205.259 403.588 187.031 393.348 174.172V174.172Z" fill="#DFC5F8"/>
<path d="M393.348 218.118L385.327 228.273C379.46 235.731 376.818 245.225 377.988 254.641L379.609 267.27C381.469 283.672 372.041 299.267 356.655 305.244L344.367 310.278C335.439 313.902 328.234 320.801 324.228 329.564L319.023 341.254C314.986 350.026 307.752 356.924 298.799 360.54L339.673 406.876C341.616 409.097 342.28 412.161 341.43 414.987C340.581 417.813 338.337 420.003 335.492 420.785L297.604 430.854C295.021 431.556 292.91 433.416 291.887 435.889L277.209 472.156C276.106 474.908 273.654 476.891 270.732 477.395C267.81 477.9 264.836 476.853 262.873 474.63L254.425 465.073L266.286 435.889C267.31 433.416 269.421 431.556 272.004 430.854L309.892 420.785C312.737 420.003 314.981 417.813 315.83 414.987C316.68 412.161 316.016 409.097 314.073 406.876L273.199 360.54C282.152 356.924 289.386 350.026 293.423 341.254L298.628 329.564C302.634 320.801 309.839 313.902 318.767 310.278L331.055 305.244C346.441 299.267 355.869 283.672 354.009 267.27L352.388 254.641C351.218 245.225 353.86 235.731 359.727 228.273L367.748 218.118C377.988 205.259 377.988 187.031 367.748 174.172L359.727 164.017C353.86 156.559 351.218 147.065 352.388 137.649L354.009 125.02C355.871 108.596 346.45 92.9757 331.055 86.961L318.767 82.0117C309.856 78.3624 302.659 71.471 298.628 62.7264L293.423 51.0357C288.733 40.8376 279.764 33.2432 268.932 30.2997L279.172 29.105C295.803 27.0139 311.89 35.8669 319.023 51.0357L324.228 62.7264C328.259 71.471 335.456 78.3624 344.367 82.0117L356.655 86.961C372.05 92.9757 381.471 108.596 379.609 125.02L377.988 137.649C376.818 147.065 379.46 156.559 385.327 164.017L393.348 174.172C403.588 187.031 403.588 205.259 393.348 218.118V218.118Z" fill="#AF71E8"/>
<path d="M204.761 315.808C270.741 315.808 324.228 262.321 324.228 196.341C324.228 130.362 270.741 76.8746 204.761 76.8746C138.782 76.8746 85.2945 130.362 85.2945 196.341C85.2945 262.321 138.782 315.808 204.761 315.808Z" fill="#AF71E8"/>
<path d="M307.673 135.772C260.257 117.346 206.373 130.987 173.435 169.754C140.498 208.522 135.74 263.901 161.582 307.718C112.765 288.811 81.9484 240.317 85.5627 188.09C89.177 135.863 126.379 92.0767 177.336 80.0737C228.293 68.0707 281.128 90.6491 307.673 135.772V135.772Z" fill="#DFC5F8"/>
<path d="M335.492 420.785L297.604 430.854C295.021 431.556 292.91 433.416 291.886 435.889L277.209 472.156C276.106 474.908 273.654 476.891 270.732 477.395C267.81 477.9 264.836 476.853 262.873 474.63L254.425 465.073L211.332 416.262L182.489 383.58L167.385 366.428C168.72 367.05 169.98 367.823 171.14 368.732L181.806 376.326C184.901 378.577 188.327 380.333 191.961 381.532C204.019 385.685 217.342 383.745 227.716 376.326L238.382 368.732C242.111 366.027 246.305 364.031 250.756 362.844C255.723 361.464 260.91 361.058 266.03 361.649L268.932 361.99L275.076 362.673L279.172 363.185C285.832 363.961 292.581 363.051 298.798 360.54L339.673 406.876C341.616 409.097 342.28 412.161 341.43 414.987C340.581 417.813 338.337 420.003 335.492 420.785V420.785Z" fill="#AF71E8"/>
<path d="M309.892 420.785L272.004 430.854C269.421 431.556 267.31 433.416 266.286 435.889L254.425 465.073L211.332 416.262L182.489 383.58C185.717 383.275 188.896 382.588 191.961 381.532C204.02 385.685 217.342 383.745 227.716 376.326L238.382 368.732C242.111 366.027 246.305 364.031 250.756 362.844L253.572 363.185C258.721 363.783 263.937 363.377 268.932 361.99C270.383 361.597 271.808 361.112 273.198 360.54L275.076 362.673L314.073 406.876C316.016 409.097 316.68 412.161 315.83 414.987C314.981 417.813 312.737 420.003 309.892 420.785V420.785Z" fill="#AF71E8"/>
<path d="M211.332 416.262L188.548 496.902C187.762 499.749 185.554 501.984 182.716 502.802C179.878 503.62 176.819 502.905 174.639 500.913L157.657 485.553L145.625 474.545C143.671 472.683 140.934 471.887 138.287 472.412L136.751 472.668L99.8012 479.75C96.9034 480.3 93.9271 479.315 91.9302 477.144C89.9332 474.974 89.1988 471.926 89.9878 469.084L92.8038 459.1L119.94 363.014C123.386 363.541 126.888 363.598 130.351 363.185L143.492 361.649C146.527 361.293 149.595 361.322 152.623 361.734H152.708C157.84 362.237 162.81 363.806 167.3 366.342L211.332 416.262Z" fill="#AF71E8"/>
<path d="M185.732 399.196L162.948 479.836C162.243 482.502 160.261 484.644 157.657 485.553L145.625 474.545C143.671 472.683 140.934 471.887 138.286 472.412L136.751 472.668L120.025 457.478C118.071 455.616 115.334 454.821 112.687 455.345L92.8038 459.1L119.94 363.014C123.386 363.541 126.888 363.598 130.35 363.185L143.492 361.649C146.527 361.293 149.595 361.322 152.622 361.734H152.708L185.732 399.196Z" fill="#AF71E8"/>
<path d="M28.6391 228.273C34.5061 235.731 37.1483 245.225 35.9778 254.641L34.3565 267.27C32.4971 283.672 41.9242 299.267 57.3111 305.244L69.5991 310.278C78.527 313.902 85.7318 320.801 89.7378 329.564L94.9431 341.254C100.401 353.056 111.5 361.259 124.383 363.014L97.2471 459.1L94.4311 469.084C93.642 471.926 94.3765 474.974 96.3735 477.144C98.3704 479.315 101.347 480.3 104.244 479.75L121.482 476.464C119.856 474.373 119.317 471.635 120.031 469.084L122.847 459.1L149.983 363.014C137.1 361.259 126.001 353.056 120.543 341.254L115.338 329.564C111.332 320.801 104.127 313.902 95.1991 310.278L82.9111 305.244C67.5242 299.267 58.0971 283.672 59.9565 267.27L61.5778 254.641C62.7483 245.225 60.1061 235.731 54.2391 228.273L46.2178 218.118C35.9769 205.259 35.9769 187.031 46.2178 174.172L54.2391 164.017C60.1061 156.559 62.7483 147.066 61.5778 137.649L59.9565 125.02C58.0943 108.596 67.5158 92.9757 82.9111 86.961L95.1991 82.0117C104.11 78.3624 111.306 71.471 115.338 62.7264L120.543 51.0357C125.315 40.7717 134.425 33.1785 145.381 30.3347L134.794 29.105C118.163 27.0142 102.076 35.8671 94.9431 51.0357L89.7378 62.7264C85.7063 71.471 78.51 78.3624 69.5991 82.0117L57.3111 86.961C41.9158 92.9757 32.4943 108.596 34.3565 125.02L35.9778 137.649C37.1483 147.066 34.5061 156.559 28.6391 164.017L20.6178 174.172C10.3769 187.031 10.3769 205.259 20.6178 218.118L28.6391 228.273Z" fill="white"/>
<path d="M295.988 30.641L298.628 30.3347C293.748 28.9692 288.651 28.5518 283.614 29.105L280.94 29.4156C285.832 30.7792 290.939 31.1951 295.988 30.641V30.641Z" fill="white"/>
<path d="M173.62 30.641C183.365 31.7378 193.173 29.2173 201.182 23.5584L211.849 15.9637C214.958 13.7414 218.38 11.9948 222.004 10.7814C209.948 6.63188 196.63 8.56214 186.249 15.9637L175.582 23.5584C171.785 26.2265 167.549 28.2089 163.068 29.4157L173.62 30.641Z" fill="white"/>
<path d="M204.761 392.265C194.735 392.269 184.959 389.129 176.811 383.286L166.144 375.632C159.874 371.165 152.162 369.201 144.519 370.124L131.324 371.648C111.026 374.094 91.4471 363.249 82.7533 344.745L77.4984 333.019C74.4159 326.255 68.8385 320.945 61.9319 318.198L49.6533 313.169C30.7311 305.658 19.1854 286.403 21.4737 266.173L23.0737 253.561C23.9701 246.406 21.9392 239.193 17.4417 233.557L9.43741 223.361C-3.1458 207.392 -3.1458 184.88 9.43741 168.911L17.4417 158.715C21.9397 153.078 23.9706 145.863 23.0737 138.706L21.4737 126.103C19.1837 105.873 30.7275 86.6165 49.649 79.1027L61.9234 74.0757C68.8314 71.3272 74.4102 66.0156 77.4942 59.2507L82.749 47.5259C91.4281 29.0077 111.018 18.1568 131.32 20.622L144.515 22.147C152.157 23.0689 159.868 21.1029 166.136 16.6344L176.811 8.98429C193.519 -2.99476 216.003 -2.99476 232.711 8.98429L243.382 16.6302C249.654 21.0932 257.364 23.06 265.007 22.147L278.202 20.622C298.501 18.1763 318.08 29.0213 326.773 47.5259L332.028 59.255C335.111 66.018 340.689 71.3281 347.595 74.0757L359.87 79.1053C378.794 86.6158 390.339 105.875 388.044 126.105L386.453 138.705C385.552 145.862 387.581 153.079 392.078 158.718L400.089 168.915C412.665 184.884 412.665 207.389 400.089 223.358L392.089 233.553C387.588 239.188 385.557 246.402 386.457 253.557V253.566L388.049 266.174C390.342 286.403 378.797 305.66 359.874 313.17L347.603 318.195C340.695 320.943 335.116 326.255 332.032 333.02L326.778 344.741C318.072 363.235 298.503 374.077 278.207 371.649L265.006 370.124C257.363 369.197 249.649 371.164 243.381 375.636L232.71 383.282C224.564 389.127 214.788 392.269 204.761 392.265V392.265ZM148.195 352.841C158.195 352.821 167.949 355.94 176.082 361.757L186.749 369.412C197.553 377.007 211.961 377.008 222.766 369.414L233.433 361.769C243.146 354.816 255.109 351.75 266.969 353.174L280.164 354.699C293.079 356.33 305.586 349.504 311.202 337.761L316.456 326.04C321.326 315.27 330.169 306.799 341.139 302.399L353.406 297.378C365.189 292.797 372.444 280.891 371.114 268.319L369.523 255.703C368.037 244.02 371.334 232.232 378.665 223.015L386.656 212.823C394.49 203.078 394.49 189.195 386.656 179.449L378.656 169.252C371.332 160.029 368.039 148.24 369.525 136.557L371.117 123.961C372.447 111.385 365.189 99.4778 353.402 94.897L341.132 89.8718C330.167 85.4705 321.325 77.0036 316.453 66.2387L311.198 54.5096C305.588 42.7614 293.076 35.9352 280.161 37.5761L266.969 39.0984C255.109 40.5228 243.146 37.4564 233.433 30.5028L222.766 22.8612C211.964 15.2607 197.552 15.2607 186.749 22.8612L176.082 30.5071C166.367 37.4497 154.41 40.5136 142.553 39.0984L129.358 37.5735C116.44 35.925 103.924 42.7552 98.3206 54.5105L93.0658 66.2361C88.1928 77.0024 79.35 85.4706 68.3831 89.8735L56.1122 94.8945C44.3299 99.4786 37.0757 111.384 38.4038 123.956L40.0038 136.561C41.4871 148.245 38.1938 160.033 30.8697 169.257L22.8655 179.452C15.032 189.197 15.032 203.079 22.8655 212.823L30.8697 223.015C38.1944 232.237 41.4889 244.024 40.0072 255.707L38.4072 268.319C37.0802 280.891 44.3343 292.794 56.1156 297.378L68.3899 302.403C79.3582 306.802 88.201 315.272 93.0692 326.04L98.324 337.765C103.953 349.496 116.45 356.316 129.361 354.703L142.557 353.178C144.428 352.957 146.31 352.846 148.195 352.844V352.841Z" fill="#8A2BE3"/>
<path d="M204.761 324.34C134.069 324.34 76.7612 267.033 76.7612 196.34C76.7612 125.648 134.069 68.3405 204.761 68.3405C275.454 68.3405 332.761 125.648 332.761 196.34C332.681 267 275.42 324.26 204.761 324.34ZM204.761 85.4071C143.494 85.4071 93.8278 135.074 93.8278 196.34C93.8278 257.607 143.494 307.274 204.761 307.274C266.028 307.274 315.695 257.607 315.695 196.34C315.627 135.102 266 85.4748 204.761 85.4071Z" fill="#8A2BE3"/>
<path d="M269.248 486.057C264.376 486.054 259.738 483.964 256.507 480.315L160.9 371.99C157.782 368.455 158.12 363.062 161.654 359.944C165.189 356.826 170.582 357.164 173.7 360.698L269.273 468.981L283.981 432.69C286.021 427.739 290.241 424.015 295.407 422.607L333.302 412.538L292.399 366.186C289.28 362.652 289.618 357.258 293.152 354.14C296.687 351.022 302.08 351.359 305.199 354.894L346.073 401.23C349.969 405.667 351.301 411.8 349.597 417.453C347.892 423.107 343.393 427.481 337.693 429.026L299.794 439.095L285.116 475.353C282.501 481.821 276.221 486.055 269.244 486.053L269.248 486.057Z" fill="#8A2BE3"/>
<path d="M81.6351 466.886L111.614 360.857L128.032 365.5L98.0533 471.528L81.6351 466.886Z" fill="white"/>
<path d="M109.243 400.896C113.552 402.28 118.17 399.934 119.594 395.639L128.151 365.334L111.728 360.695L103.17 391.004C102.138 395.409 104.848 399.823 109.243 400.896V400.896Z" fill="#8A2BE3"/>
<path d="M81.7753 466.765L98.2003 471.403L102.479 456.25C103.344 451.872 100.701 447.564 96.4071 446.352C92.1127 445.139 87.6072 447.428 86.0548 451.612L81.7753 466.765Z" fill="#8A2BE3"/>
<path d="M111.037 425.944C111.565 423.893 111.255 421.715 110.173 419.893L109.2 418.635C108.819 418.215 108.387 417.845 107.913 417.533C107.506 417.181 107.051 416.889 106.561 416.664C106.042 416.425 105.509 416.22 104.964 416.049C102.816 415.46 100.529 415.656 98.5126 416.6C97.577 417.103 96.7502 417.785 96.0798 418.609C94.0417 421.102 93.7995 424.609 95.4756 427.358C96.0775 428.275 96.8425 429.073 97.7327 429.713C98.6183 430.385 99.6188 430.889 100.685 431.202C102.833 431.789 105.119 431.593 107.136 430.65C109.01 429.662 110.414 427.969 111.037 425.944V425.944Z" fill="#8A2BE3"/>
<path d="M180.29 511.686C176.04 511.687 171.947 510.074 168.84 507.173L139.886 480.86L101.401 488.131C95.599 489.237 89.6374 487.265 85.64 482.916C81.6426 478.568 80.1779 472.462 81.7677 466.773C83.0425 462.235 87.7547 459.59 92.2927 460.864C96.8307 462.139 99.476 466.851 98.2011 471.389L98.1926 471.414L136.685 464.027C142.041 462.999 147.563 464.617 151.517 468.373L180.378 494.598L203.119 413.941C203.948 411.006 206.28 408.738 209.235 407.989C212.191 407.24 215.321 408.124 217.448 410.309C219.574 412.494 220.373 415.648 219.544 418.582L196.76 499.222C195.183 504.951 190.714 509.432 184.989 511.026C183.461 511.462 181.879 511.684 180.29 511.686V511.686Z" fill="#8A2BE3"/>
</svg>
