<svg width="372" height="261" viewBox="0 0 372 261" fill="none" xmlns="http://www.w3.org/2000/svg">
<path d="M173.377 186.576L12.6107 186.576C10.3306 186.577 8.23513 185.322 7.15878 183.312C6.08243 181.302 6.20002 178.863 7.46471 176.966L13.4167 167.976L21.6627 155.576L35.9227 134.186C37.3486 132.136 37.3486 129.415 35.9227 127.366L32.0167 121.476L21.6627 105.976L7.46471 84.5856C6.20003 82.6884 6.08244 80.249 7.15878 78.239C8.23513 76.2289 10.3306 74.9746 12.6107 74.9756L173.377 74.9756L173.377 186.576Z" fill="#DFC5F8"/>
<path d="M173.377 167.976L13.4167 167.976L21.6627 155.576L35.9227 134.186C37.3486 132.136 37.3486 129.415 35.9227 127.366L32.0167 121.476L35.9227 115.586C37.3486 113.536 37.3486 110.815 35.9227 108.766L21.6627 87.3756L13.4167 74.9756L173.377 74.9756L173.377 167.976Z" fill="#DFC5F8"/>
<path d="M173.377 105.976L21.6627 105.976L35.9227 127.366C37.3487 129.415 37.3487 132.136 35.9227 134.186L21.6627 155.576L173.377 155.576L173.377 105.976Z" fill="#DFC5F8"/>
<path d="M358.605 142.06L301.086 170.627C297.387 172.471 294.83 176.013 294.244 180.104L285.02 243.988C284.364 248.716 281.07 252.656 276.533 254.14C271.996 255.623 267.01 254.39 263.688 250.963L218.915 204.739C216.051 201.776 211.907 200.421 207.845 201.12L144.625 212.032C139.913 212.817 135.163 210.863 132.367 206.99C129.571 203.116 129.212 197.993 131.441 193.768L161.287 136.633C163.202 132.963 163.202 128.588 161.287 124.918L131.441 67.7835C129.213 63.5584 129.572 58.4355 132.368 54.5627C135.164 50.6899 139.914 48.7365 144.625 49.5214L207.845 60.4334C211.907 61.1315 216.051 59.7766 218.915 56.8139L263.688 10.5904C267.01 7.16293 271.995 5.92947 276.532 7.41253C281.069 8.8956 284.364 12.8356 285.02 17.5635L294.244 81.4428C294.83 85.5335 297.387 89.0758 301.086 90.9195L358.605 119.492C362.875 121.632 365.571 125.999 365.571 130.776C365.571 135.552 362.875 139.919 358.605 142.06V142.06Z" fill="#AF71E8"/>
<path d="M151.367 105.976L132.767 105.976L116.647 74.9756L135.247 74.9756L151.367 105.976Z" fill="#DFC5F8"/>
<path d="M151.367 155.576L132.767 155.576L142.687 136.604C144.609 132.956 144.609 128.595 142.687 124.948L132.767 105.976L151.367 105.976L161.287 124.948C163.209 128.595 163.209 132.956 161.287 136.604L151.367 155.576Z" fill="#DFC5F8"/>
<path d="M135.247 186.576L116.647 186.576L132.767 155.576L151.367 155.576L135.247 186.576Z" fill="#DFC5F8"/>
<path d="M300.988 180.221C244.755 168.693 204.386 119.204 204.392 61.8005L204.392 61.0565L214.064 62.7305C218.114 63.4629 222.26 62.1118 225.1 59.1345L269.926 12.9445C273.242 9.5151 278.224 8.27645 282.76 9.75332C287.296 11.2302 290.593 15.1641 291.254 19.8885L300.43 83.7486C301.024 87.8501 303.598 91.3971 307.312 93.2346L364.848 121.817C369.098 123.973 371.775 128.335 371.775 133.101C371.775 137.866 369.098 142.228 364.848 144.385L307.312 172.967C304.313 174.433 302.032 177.049 300.988 180.221V180.221Z" fill="#DFC5F8"/>
<path d="M294.773 177.896C293.843 177.71 292.913 177.524 291.983 177.276L294.215 161.528C294.809 157.426 297.382 153.879 301.097 152.042L358.633 123.46C359.683 122.922 360.662 122.255 361.547 121.476C364.569 124.304 366.023 128.427 365.442 132.525C364.862 136.623 362.321 140.181 358.633 142.06L301.097 170.642C298.097 172.108 295.817 174.724 294.773 177.896Z" fill="#DFC5F8"/>
<path d="M7.46484 84.5751L13.4323 93.5651L142.33 93.5651L138.573 86.3731C136.538 82.4777 129.707 78.3559 131.398 74.9651L12.6108 74.9651C10.3307 74.9641 8.23527 76.2185 7.15892 78.2285C6.08257 80.2386 6.20016 82.6779 7.46484 84.5751V84.5751Z" fill="white"/>
<path d="M218.885 56.7992C217.482 58.2635 215.74 59.3596 213.813 59.9903C213.677 60.0343 213.531 60.0343 213.394 60.0734C211.596 60.6106 209.697 60.7208 207.849 60.3952L198.177 58.7212L198.177 58.7534L144.626 49.5111C139.914 48.7258 135.165 50.679 132.368 54.5518C129.572 58.4245 129.213 63.5475 131.441 67.7725L133.577 71.8645C136.38 68.8123 140.544 67.3984 144.626 68.1135L198.177 77.3534L198.177 77.3212L207.849 78.9952C209.697 79.3208 211.596 79.2106 213.394 78.6734C213.531 78.6343 213.677 78.6343 213.813 78.5903C215.74 77.9596 217.482 76.8635 218.885 75.3992L236.853 56.8841L263.688 29.1794C267.022 25.7745 271.999 24.556 276.529 26.0356C281.059 27.5152 284.357 31.4367 285.039 36.1532L288.807 62.3792L294.245 100.035C294.715 103.217 296.389 106.098 298.921 108.082C299.593 108.632 300.322 109.107 301.097 109.5L358.633 138.082C359.676 138.606 360.642 139.274 361.5 140.066L361.5 140.062C361.774 139.814 361.973 139.518 362.22 139.249C362.73 138.716 363.191 138.138 363.596 137.521C363.658 137.418 363.766 137.335 363.827 137.23C363.987 136.96 364.049 136.655 364.186 136.376C364.468 135.821 364.709 135.246 364.905 134.655C365.048 134.188 365.164 133.713 365.251 133.233C365.583 131.649 365.589 130.014 365.268 128.427C365.19 127.937 365.083 127.452 364.947 126.974C364.748 126.375 364.504 125.792 364.217 125.229C364.07 124.925 364 124.593 363.827 124.299C363.784 124.225 363.709 124.168 363.665 124.095C363.19 123.344 362.635 122.647 362.01 122.017C361.864 121.867 361.766 121.688 361.612 121.545L361.544 121.465L361.52 121.481C360.656 120.681 359.683 120.007 358.63 119.48L301.094 90.8979C300.319 90.5055 299.59 90.0303 298.918 89.4806C296.386 87.496 294.712 84.6155 294.242 81.433L288.804 43.7773L285.036 17.5513C284.354 12.8348 281.056 8.91336 276.526 7.43376C271.996 5.95416 267.019 7.17266 263.685 10.5775L236.85 38.2822L218.885 56.7992Z" fill="white"/>
<path d="M123.783 61.9035C123.788 57.9199 125.062 54.0413 127.419 50.8297C131.582 45.0627 138.674 42.1819 145.68 43.4127L208.9 54.3247C210.941 54.673 213.022 53.9911 214.461 52.5025L259.235 6.27961C264.202 1.15307 271.656 -0.695441 278.443 1.51625C285.229 3.72793 290.163 9.61328 291.156 16.682L300.38 80.5556C300.676 82.6316 301.971 84.4304 303.847 85.3693L361.361 113.938C367.743 117.123 371.776 123.643 371.776 130.776C371.776 137.909 367.743 144.428 361.361 147.614L303.845 176.179C301.971 177.12 300.677 178.918 300.381 180.993L291.157 244.87C290.164 251.939 285.231 257.825 278.443 260.036C271.656 262.248 264.202 260.399 259.235 255.272L214.461 209.051C213.023 207.563 210.943 206.881 208.903 207.228L145.68 218.14C138.644 219.327 131.544 216.422 127.359 210.644C123.173 204.865 122.626 197.214 125.947 190.899L155.794 133.76C156.771 131.893 156.771 129.664 155.794 127.797L125.947 70.6523C124.528 67.9542 123.786 64.9519 123.783 61.9035V61.9035ZM359.377 130.776C359.415 128.342 358.04 126.106 355.85 125.042L298.327 96.476C292.803 93.7238 288.983 88.4346 288.107 82.3257L278.883 18.449C278.572 16.0343 276.885 14.0207 274.563 13.2906C272.291 12.5306 269.785 13.1598 268.142 14.9026L223.367 61.1242C219.08 65.5646 212.872 67.5938 206.79 66.543L143.573 55.6316C141.216 55.2017 138.824 56.1769 137.439 58.1321C135.962 60.1006 135.766 62.749 136.937 64.9136L166.783 122.052C169.641 127.519 169.641 134.04 166.783 139.507L136.937 196.639C135.765 198.803 135.961 201.452 137.439 203.42C138.824 205.376 141.216 206.351 143.573 205.921L206.795 195.008C212.876 193.957 219.083 195.986 223.37 200.426L268.142 246.654C269.785 248.396 272.291 249.026 274.563 248.266C276.885 247.535 278.572 245.522 278.883 243.107L288.107 179.226C288.983 173.118 292.802 167.829 298.324 165.075L355.847 136.509L355.85 136.509C358.04 135.445 359.415 133.21 359.377 130.776V130.776Z" fill="#8A2BE3"/>
<path d="M135.247 81.1757L54.6468 81.1757L12.6108 81.1757L12.6108 68.7757L54.6468 68.7757L135.247 68.7757L135.247 81.1757Z" fill="white"/>
<path d="M104.247 74.9757C104.257 78.3958 107.027 81.1659 110.447 81.1757L135.247 81.1757L135.247 68.7757L110.447 68.7757C107.027 68.7859 104.257 71.5558 104.247 74.9757Z" fill="#8A2BE3"/>
<path d="M12.6109 68.7757L12.6109 81.1757L60.8469 81.1757C64.271 81.1757 67.0469 78.3999 67.0469 74.9757C67.0469 71.5516 64.271 68.7757 60.8469 68.7757L12.6109 68.7757Z" fill="#8A2BE3"/>
<path d="M85.6469 81.1758C87.2881 81.1512 88.8599 80.5093 90.0489 79.3778L90.7929 78.4478C91.0275 78.1021 91.2151 77.7268 91.3509 77.3318C91.5301 76.9805 91.6555 76.6043 91.7229 76.2158C91.7927 75.8058 91.8341 75.3915 91.8469 74.9758C91.8241 73.3342 91.1819 71.7619 90.0489 70.5738C88.5997 69.069 86.4821 68.4088 84.4344 68.8233C82.3868 69.2379 80.6927 70.6697 79.9429 72.6198C79.6252 73.3651 79.4567 74.1656 79.4469 74.9758C79.4302 76.6252 80.078 78.2119 81.2444 79.3783C82.4108 80.5447 83.9975 81.1925 85.6469 81.1758V81.1758Z" fill="#8A2BE3"/>
<path d="M0.225039 81.1577C0.22471 77.8731 1.52965 74.7229 3.8526 72.4007C6.17556 70.0784 9.32612 68.7744 12.6108 68.7757C16.0349 68.7757 18.8108 71.5516 18.8108 74.9757C18.8108 78.3999 16.0349 81.1757 12.6108 81.1757L41.083 123.928C43.9247 128.097 43.8958 133.588 41.0105 137.727L12.6318 180.394L135.247 180.376C138.671 180.376 141.447 183.152 141.447 186.576C141.447 190 138.671 192.776 135.247 192.776L12.6108 192.776C8.04413 192.777 3.84747 190.265 1.69254 186.239C-0.462389 182.212 -0.225491 177.327 2.30887 173.528L30.7669 130.748L2.3039 88.0137C0.947383 85.9846 0.223855 83.5985 0.225039 81.1577V81.1577Z" fill="#8A2BE3"/>
<path d="M15.4629 155.576C15.4612 154.351 15.8238 153.154 16.5045 152.137L30.7645 130.747L16.5045 109.419C15.2341 107.516 15.1147 105.068 16.1938 103.051C17.2729 101.034 19.3752 99.775 21.6629 99.7758L151.367 99.7758C154.791 99.7758 157.567 102.552 157.567 105.976C157.567 109.4 154.791 112.176 151.367 112.176L33.247 112.176L41.0819 123.928C43.9236 128.097 43.8947 133.588 41.0094 137.727L33.247 149.376L151.367 149.376C154.791 149.376 157.567 152.152 157.567 155.576C157.567 159 154.791 161.776 151.367 161.776L21.6629 161.776C18.2387 161.776 15.4629 159 15.4629 155.576Z" fill="#8A2BE3"/>
</svg>
