<svg width="368" height="367" viewBox="0 0 368 367" fill="none" xmlns="http://www.w3.org/2000/svg">
<path fill-rule="evenodd" clip-rule="evenodd" d="M112.561 180.381C107.988 188.007 107.55 195.925 111.211 203.826C110.934 204.295 110.845 204.691 110.638 204.767C81.9595 215.258 53.0514 218.656 24.023 206.4C17.6839 203.722 11.9239 199.57 6.1168 195.762C2.78852 193.579 3.60595 186.307 7.26321 184.924C41.2725 172.074 75.7908 168.572 111.045 179.664C111.483 179.801 111.881 180.055 112.561 180.381Z" fill="#8A2BE3"/>
<path fill-rule="evenodd" clip-rule="evenodd" d="M144.73 196.895C144.664 194.269 144.609 191.932 144.554 189.712C148.715 189.566 152.499 189.612 156.244 189.265C166.334 188.332 176.541 187.897 186.44 185.942C192.456 184.753 198.286 181.612 203.672 178.455C215.261 171.663 227.302 167.358 240.974 167.36C268.906 167.366 296.842 166.653 324.774 166.717C333.759 166.736 342.767 168.09 351.714 169.212C355.282 169.658 358.841 170.836 362.194 172.199C367.524 174.363 367.797 176.369 363.792 180.333C363.565 180.555 363.305 180.744 363.091 180.975C353.099 191.705 348.559 192.011 336.546 182.927C335.472 182.118 334.063 181.504 332.733 181.31C296.405 175.932 259.973 176.164 223.505 179.458C222.195 179.576 220.841 180.351 219.708 181.114C198.578 195.313 170.482 201.32 144.73 196.895Z" fill="#8A2BE3"/>
<path fill-rule="evenodd" clip-rule="evenodd" d="M117.603 203.529C113.05 189.692 117.006 181.767 127.27 182.224C126.733 188.78 126.194 195.356 125.623 202.319C123.332 202.664 120.566 203.083 117.603 203.529Z" fill="#8A2BE3"/>
<path fill-rule="evenodd" clip-rule="evenodd" d="M138.533 201.308C137.317 201.382 135.118 201.514 131.667 201.724C132.136 194.947 132.583 188.508 133.039 181.925C136.137 181.825 138.171 181.757 139.633 181.71C139.27 188.142 138.919 194.422 138.533 201.308Z" fill="#8A2BE3"/>
</svg>
