<svg width="322" height="329" viewBox="0 0 322 329" fill="none" xmlns="http://www.w3.org/2000/svg">
<path d="M269.22 137.774L224.556 183.923C221.687 186.897 220.461 191.09 221.276 195.141L233.934 258.434C234.896 263.109 233.109 267.924 229.328 270.839C225.548 273.754 220.436 274.258 216.16 272.138L158.513 243.537C154.822 241.702 150.464 241.81 146.869 243.825L90.9324 275.239C86.7537 277.555 81.6238 277.301 77.6939 274.585C73.7639 271.869 71.7133 267.16 72.402 262.432L81.4352 198.608C82.0142 194.509 80.552 190.386 77.5199 187.567L30.2946 143.693C26.7826 140.456 25.409 135.508 26.7498 130.923C28.0906 126.338 31.914 122.91 36.6171 122.075L99.8481 111.23C103.909 110.53 107.362 107.868 109.072 104.118L135.821 45.5888C137.806 41.2481 142.093 38.4193 146.864 38.3006C151.636 38.182 156.058 40.7944 158.257 45.0311L188.3 102.154C190.22 105.814 193.814 108.297 197.916 108.799L261.677 116.503C266.417 117.093 270.418 120.308 272.014 124.81C273.611 129.312 272.529 134.329 269.22 137.774Z" fill="#AF71E8"/>
<path d="M227.671 192.997C170.819 200.927 116.23 167.776 97.0509 113.672L96.8022 112.971L106.478 111.316C110.539 110.653 113.995 107.994 115.677 104.238L142.487 45.7225C144.466 41.3819 148.747 38.5497 153.516 38.4255C158.285 38.3014 162.707 40.9071 164.91 45.1388L194.902 102.259C196.832 105.927 200.443 108.41 204.558 108.9L268.338 116.608C273.065 117.22 277.046 120.436 278.639 124.928C280.231 129.419 279.166 134.425 275.881 137.878L231.207 184.047C228.87 186.431 227.595 189.659 227.671 192.997Z" fill="#DFC5F8"/>
<path d="M221.036 192.883C220.097 193.019 219.159 193.154 218.199 193.231L215.04 177.643C214.228 173.579 215.468 169.376 218.355 166.402L263.03 120.234C263.84 119.376 264.539 118.421 265.113 117.39C268.906 119.046 271.655 122.446 272.478 126.502C273.301 130.559 272.095 134.761 269.246 137.764L224.572 183.933C222.235 186.318 220.96 189.545 221.036 192.883Z" fill="#DFC5F8"/>
<path d="M109.039 104.115C108.206 105.964 106.93 107.579 105.325 108.817C105.211 108.904 105.073 108.953 104.957 109.036C103.442 110.143 101.69 110.882 99.8392 111.192L90.1639 112.847L90.1746 112.878L36.614 122.065C31.9108 122.9 28.0873 126.328 26.7464 130.913C25.4056 135.497 26.7792 140.446 30.2913 143.683L33.6721 146.826C35.2932 143.012 38.7457 140.288 42.8314 139.598L96.3913 130.408L96.3805 130.378L106.056 128.723C107.906 128.412 109.659 127.674 111.174 126.566C111.29 126.484 111.428 126.435 111.541 126.348C113.147 125.109 114.423 123.494 115.255 121.645L126.002 98.1891L142.034 63.1087C144.038 58.7853 148.322 55.9734 153.086 55.8539C157.85 55.7343 162.269 58.3279 164.488 62.5454L176.805 86.0037L194.515 119.677C196.022 122.519 198.562 124.674 201.612 125.699C202.429 125.992 203.276 126.196 204.137 126.307L267.917 134.015C269.076 134.161 270.209 134.468 271.283 134.927L271.281 134.923C271.457 134.598 271.546 134.253 271.688 133.917C271.991 133.244 272.232 132.545 272.407 131.828C272.431 131.71 272.505 131.596 272.528 131.476C272.588 131.169 272.544 130.86 272.58 130.552C272.661 129.934 272.696 129.312 272.683 128.689C272.662 128.201 272.612 127.715 272.534 127.233C272.317 125.629 271.776 124.086 270.944 122.698C270.707 122.262 270.443 121.841 270.156 121.436C269.768 120.938 269.343 120.47 268.884 120.035C268.644 119.798 268.467 119.508 268.206 119.289C268.141 119.234 268.051 119.205 267.985 119.151C267.286 118.602 266.531 118.131 265.731 117.745C265.543 117.653 265.391 117.517 265.198 117.433L265.107 117.381L265.089 117.405C264.008 116.939 262.865 116.629 261.697 116.484L197.917 108.776C197.056 108.665 196.209 108.461 195.392 108.167C192.342 107.143 189.802 104.988 188.295 102.145L170.585 68.4726L158.268 45.0143C156.049 40.7968 151.63 38.2033 146.866 38.3228C142.102 38.4423 137.818 41.2542 135.814 45.5777L119.782 80.6581L109.039 104.115Z" fill="white"/>
<path d="M21.1117 140.711C19.7853 136.955 19.6892 132.874 20.8372 129.059C22.8332 122.232 28.5551 117.146 35.5689 115.965L98.8005 105.12C100.841 104.766 102.574 103.428 103.433 101.544L130.183 43.0141C133.151 36.5223 139.558 32.2888 146.694 32.105C153.83 31.9212 160.447 35.8191 163.745 42.1495L193.787 99.2669C194.76 101.125 196.582 102.387 198.663 102.645L262.418 110.348C269.498 111.217 275.478 116.014 277.862 122.736C280.246 129.459 278.624 136.952 273.674 142.087L229.013 188.234C227.561 189.746 226.943 191.873 227.357 193.928L240.013 257.214C241.44 264.209 238.757 271.405 233.099 275.758C227.442 280.111 219.798 280.86 213.403 277.687L155.756 249.089C153.903 248.167 151.715 248.22 149.908 249.229L93.9678 280.645C87.7335 284.115 80.071 283.749 74.195 279.702C68.319 275.655 65.2459 268.627 66.2649 261.565L75.298 197.737C75.5953 195.65 74.8505 193.549 73.3048 192.116L26.0752 148.234C23.8363 146.165 22.133 143.583 21.1117 140.711ZM266.176 126.881C265.398 124.574 263.355 122.926 260.936 122.655L197.173 114.958C191.048 114.21 185.679 110.502 182.812 105.037L152.768 47.9168C151.668 45.745 149.406 44.4109 146.973 44.499C144.578 44.5419 142.426 45.9725 141.46 48.1643L114.709 106.693C112.152 112.311 106.979 116.298 100.896 117.341L37.6672 128.186C35.3022 128.568 33.3734 130.287 32.722 132.592C31.9877 134.941 32.688 137.503 34.5153 139.152L81.7422 183.028C86.2633 187.226 88.4427 193.372 87.5763 199.48L78.5415 263.302C78.1607 265.733 79.2308 268.164 81.2814 269.525C83.2397 270.905 85.8205 271.025 87.8981 269.832L143.837 238.416C149.218 235.393 155.746 235.231 161.27 237.983L218.918 266.588C221.049 267.681 223.621 267.437 225.508 265.961C227.453 264.497 228.369 262.035 227.855 259.656L215.198 196.364C213.983 190.315 215.814 184.054 220.098 179.613L264.766 133.464L264.769 133.463C266.476 131.729 267.025 129.162 266.176 126.881Z" fill="#8A2BE3"/>
</svg>
