<?xml version="1.0" standalone="no"?>
<!DOCTYPE svg PUBLIC "-//W3C//DTD SVG 20010904//EN"
 "http://www.w3.org/TR/2001/REC-SVG-20010904/DTD/svg10.dtd">
<svg version="1.0" xmlns="http://www.w3.org/2000/svg"
 width="1280.000000pt" height="1217.000000pt" viewBox="0 0 1280.000000 1217.000000"
 preserveAspectRatio="xMidYMid meet">
<metadata>
Created by potrace 1.15, written by Peter Selinger 2001-2017
</metadata>
<g transform="translate(0.000000,1217.000000) scale(0.100000,-0.100000)"
fill="#000000" stroke="none">
<path d="M6390 12149 c0 -7 -58 -190 -129 -408 -121 -371 -199 -610 -521
-1601 -263 -810 -392 -1206 -518 -1595 -72 -220 -176 -541 -232 -712 l-102
-313 -2439 -2 -2440 -3 1962 -1425 c1079 -784 1966 -1428 1972 -1432 13 -8 10
-20 -153 -518 -72 -223 -190 -585 -262 -805 -71 -220 -188 -579 -259 -797
-289 -889 -397 -1221 -519 -1598 -171 -527 -286 -880 -295 -910 l-8 -24 28 18
c29 19 2036 1476 3250 2359 363 265 667 481 675 481 8 0 438 -308 955 -684
2390 -1737 2988 -2171 2991 -2167 4 3 -62 209 -432 1347 -121 372 -239 735
-514 1580 -71 220 -189 581 -261 803 -72 221 -166 511 -210 645 -43 134 -79
248 -79 255 1 7 887 656 1971 1442 l1970 1430 -2440 3 -2440 2 -36 113 c-47
144 -259 795 -430 1322 -73 226 -190 583 -258 795 -372 1145 -531 1634 -648
1991 -71 218 -129 401 -129 408 0 6 -4 11 -10 11 -5 0 -10 -5 -10 -11z m73
-662 c32 -100 117 -361 188 -579 71 -219 187 -577 258 -795 329 -1011 399
-1229 520 -1600 135 -416 307 -945 317 -975 5 -17 -64 -18 -1346 -18 l-1351 0
7 23 c7 22 330 1015 575 1770 71 218 188 577 259 797 72 220 188 579 259 798
71 218 156 479 188 579 32 101 60 183 63 183 3 0 31 -82 63 -183z m-1628
-4129 c-2 -7 -63 -195 -135 -418 -73 -223 -189 -583 -260 -800 -314 -966 -390
-1200 -411 -1267 l-23 -72 -30 22 c-27 18 -1614 1170 -3043 2209 -249 181
-453 331 -453 333 0 3 981 5 2180 5 1739 0 2179 -3 2175 -12z m2845 -2 c-27
-25 -1272 -926 -1280 -926 -8 0 -1253 901 -1280 926 -12 12 176 14 1280 14
1104 0 1292 -2 1280 -14z m4640 9 c0 -2 -179 -134 -397 -293 -1261 -916 -3072
-2231 -3099 -2249 l-30 -22 -23 72 c-22 69 -117 362 -411 1267 -72 223 -190
585 -261 805 -72 220 -132 406 -134 413 -4 9 436 12 2175 12 1199 0 2180 -2
2180 -5z m-6634 -493 l665 -483 -407 -295 c-223 -163 -412 -298 -419 -300 -7
-3 -15 3 -17 13 -14 48 -501 1539 -506 1547 -2 5 0 7 7 5 6 -2 311 -222 677
-487z m1994 126 c-65 -200 -178 -545 -250 -768 -73 -223 -135 -413 -138 -423
-2 -10 -10 -16 -17 -13 -8 3 -196 137 -420 300 l-406 295 668 485 c367 267
671 486 674 486 4 0 -47 -163 -111 -362z m-2550 -216 c85 -262 194 -598 242
-747 48 -148 88 -275 88 -281 0 -12 -1280 -947 -1287 -941 -5 6 790 2447 796
2447 3 0 76 -215 161 -478z m3103 -743 c219 -672 396 -1224 394 -1226 -5 -4
-1270 914 -1281 930 -6 9 24 116 88 313 54 164 155 477 226 694 71 217 136
421 146 453 10 31 20 57 24 57 3 0 185 -550 403 -1221z m-1811 249 c9 -29 50
-158 92 -286 42 -128 76 -237 76 -242 0 -6 -75 -10 -190 -10 -115 0 -190 4
-190 10 0 5 34 114 76 242 42 128 83 257 92 286 8 28 18 52 22 52 4 0 14 -24
22 -52z m-131 -200 c-42 -128 -83 -255 -92 -283 l-15 -50 -304 -3 c-192 -1
-301 1 -295 7 18 17 770 561 776 561 3 0 -28 -105 -70 -232z m548 -54 l385
-279 -299 -3 c-164 -1 -302 1 -306 5 -4 5 -23 60 -43 123 -20 63 -60 188 -90
278 -30 90 -49 161 -42 159 6 -3 184 -130 395 -283z m-259 -314 c-1 -9 -168
-125 -180 -125 -12 0 -179 116 -180 125 0 3 81 5 180 5 99 0 180 -2 180 -5z
m-410 -2 c-2 -20 -119 -363 -124 -361 -10 2 -496 354 -496 359 0 2 140 4 310
4 171 0 310 -1 310 -2z m167 -96 c29 -21 52 -39 52 -42 0 -10 -111 -80 -118
-75 -5 2 -21 47 -36 100 -16 52 -30 93 -33 91 -2 -3 10 -50 28 -106 17 -56 30
-104 28 -106 -16 -15 -172 -123 -175 -120 -5 4 84 281 104 324 l15 32 42 -31
c22 -17 64 -47 93 -67z m332 -96 c28 -87 50 -160 48 -162 -3 -3 -159 104 -175
120 -2 2 11 50 28 106 18 56 30 103 28 106 -3 2 -17 -39 -33 -91 -15 -53 -31
-98 -36 -100 -7 -5 -118 66 -118 75 0 3 41 35 92 71 81 59 93 65 103 50 6 -9
35 -87 63 -175z m581 190 c0 -6 -488 -358 -497 -357 -5 0 -121 337 -123 359 0
1 140 2 310 2 171 0 310 -2 310 -4z m-1741 -98 c11 -35 78 -243 149 -463 72
-220 133 -410 137 -422 l6 -23 -831 0 -832 0 463 336 c255 186 556 404 668
485 113 82 208 149 212 149 4 0 16 -28 28 -62z m299 -120 c127 -93 232 -172
232 -176 0 -4 -42 -135 -93 -292 l-93 -285 -107 325 c-58 179 -124 384 -148
455 -23 72 -44 136 -47 144 -8 20 -8 20 256 -171z m1402 56 c-21 -65 -89 -274
-151 -464 l-113 -345 -93 285 c-51 157 -93 288 -93 292 0 8 481 360 486 355 2
-2 -14 -57 -36 -123z m746 -332 c341 -246 639 -463 663 -480 l44 -32 -832 0
-832 0 6 23 c4 12 65 202 137 422 71 220 138 428 150 463 13 42 24 62 33 58 7
-2 291 -207 631 -454z m-1493 307 c32 -22 57 -46 57 -53 0 -6 -9 -40 -21 -74
l-21 -62 -78 0 -78 0 -21 62 c-12 34 -21 68 -21 74 0 12 105 94 120 94 4 0 32
-18 63 -41z m-177 -111 c9 -29 19 -59 22 -65 3 -10 -23 -13 -109 -15 l-114 -2
115 -5 115 -6 33 -100 c17 -55 31 -103 30 -106 -4 -8 -291 203 -294 216 -3 9
163 135 178 135 3 0 14 -24 24 -52z m352 -15 c45 -32 80 -62 78 -68 -3 -13
-290 -224 -294 -216 -1 3 13 51 30 106 l33 100 115 6 115 5 -114 2 c-86 2
-112 5 -109 15 3 6 13 36 23 65 11 34 22 52 30 49 6 -3 49 -32 93 -64z m-168
-79 c0 -17 -64 -214 -70 -214 -6 0 -70 197 -70 214 0 3 32 6 70 6 39 0 70 -3
70 -6z m-240 -132 c80 -58 146 -106 148 -107 2 -2 -111 -86 -250 -188 -139
-101 -254 -183 -256 -182 -2 2 40 136 93 299 68 209 100 294 108 290 7 -4 77
-55 157 -112z m605 -178 c53 -163 95 -297 93 -299 -2 -1 -117 81 -256 182
-139 102 -252 186 -250 188 18 15 311 225 314 225 2 0 46 -133 99 -296z m-186
-126 l238 -173 -244 -3 c-133 -1 -353 -1 -486 0 l-244 3 236 172 c130 95 242
172 249 172 7 1 120 -77 251 -171z m-711 -593 c62 -192 174 -534 247 -760 74
-225 133 -410 132 -411 -1 -1 -56 37 -122 86 -66 48 -534 388 -1040 755 -506
367 -924 671 -930 676 -5 5 327 8 795 7 l804 -3 114 -350z m972 344 c0 -7 -58
-190 -129 -408 -317 -971 -371 -1139 -371 -1149 0 -7 -4 -12 -10 -12 -5 0 -10
5 -10 12 0 10 -54 178 -371 1149 -71 218 -129 401 -129 408 0 8 137 11 510 11
373 0 510 -3 510 -11z m1665 2 c-6 -5 -424 -309 -930 -676 -506 -367 -974
-707 -1040 -755 -66 -49 -121 -87 -122 -86 -1 1 58 186 132 411 73 226 184
565 245 755 62 190 114 348 117 353 2 4 365 7 806 7 462 0 797 -4 792 -9z
m-3752 -623 c1625 -1180 1450 -1048 1424 -1068 -12 -9 -285 -208 -607 -442
-322 -233 -1104 -801 -1738 -1262 -635 -461 -1156 -836 -1158 -833 -3 3 29
108 70 233 41 126 134 411 206 634 137 420 297 913 521 1603 72 221 189 582
261 802 216 666 282 865 286 865 2 0 333 -239 735 -532z m3969 300 c42 -128
136 -415 208 -638 131 -402 269 -827 521 -1602 72 -222 189 -583 261 -803 71
-220 163 -503 204 -629 41 -125 73 -230 70 -233 -3 -3 -3385 2445 -3503 2537
-23 18 -14 24 1065 808 598 435 1089 791 1093 791 3 1 39 -104 81 -231z"/>
</g>
</svg>
